<svg width="23" height="23" xmlns="http://www.w3.org/2000/svg">

 <g>
  <title>background</title>
  <rect fill="none" id="canvas_background" height="25" width="25" y="-1" x="-1"/>
 </g>
 <g>
  <title>Layer 1</title>
  <path id="svg_1" fill="#E33E54" d="m11.5,21.7204c-0.3275,0 -0.6431,-0.1186 -0.8892,-0.3341c-0.9291,-0.8124 -1.82491,-1.5759 -2.61525,-2.2494l-0.00403,-0.0035c-2.31716,-1.9746 -4.31811,-3.6799 -5.71034,-5.3598c-1.55629,-1.8779 -2.28118,-3.6585 -2.28118,-5.60361c0,-1.88988 0.64803,-3.63341 1.8246,-4.90964c1.1906,-1.29133 2.82428,-2.00254 4.60062,-2.00254c1.32765,0 2.54352,0.41974 3.61378,1.24746c0.5401,0.41781 1.0297,0.92915 1.461,1.52559c0.4315,-0.59644 0.9209,-1.10778 1.4612,-1.52559c1.0702,-0.82772 2.2861,-1.24746 3.6137,-1.24746c1.7762,0 3.41,0.71121 4.6006,2.00254c1.1766,1.27623 1.8245,3.01976 1.8245,4.90964c0,1.94511 -0.7248,3.72571 -2.2811,5.60351c-1.3922,1.68 -3.393,3.3851 -5.7098,5.3595c-0.7917,0.6746 -1.6889,1.4393 -2.6202,2.2537c-0.2458,0.2151 -0.5617,0.3337 -0.8889,0.3337zm-5.07478,-19.11528c-1.39556,0 -2.67758,0.55696 -3.61024,1.5684c-0.94651,1.02671 -1.46785,2.44596 -1.46785,3.99647c0,1.63596 0.60802,3.09911 1.97129,4.74401c1.31765,1.59 3.27754,3.2602 5.54679,5.1941l0.00421,0.0035c0.79333,0.6761 1.69268,1.4426 2.62858,2.261c0.9417,-0.82 1.8424,-1.5877 2.6373,-2.2649c2.2691,-1.9339 4.2288,-3.6037 5.5464,-5.1937c1.3631,-1.6449 1.9711,-3.10805 1.9711,-4.74401c0,-1.55051 -0.5213,-2.96976 -1.4678,-3.99647c-0.9325,-1.01144 -2.2147,-1.5684 -3.6101,-1.5684c-1.0223,0 -1.9609,0.32498 -2.7897,0.96582c-0.7386,0.57135 -1.2531,1.29361 -1.5547,1.79898c-0.1551,0.25988 -0.4282,0.415 -0.7305,0.415c-0.3024,0 -0.5754,-0.15512 -0.7305,-0.415c-0.3015,-0.50537 -0.81599,-1.22763 -1.55474,-1.79898c-0.82877,-0.64084 -1.76739,-0.96582 -2.78954,-0.96582z"/>
  <path d="m9.651748,12.988324c0,-0.194552 0.235735,-0.333487 0.778211,-0.778211c0.63833,-0.523304 1.32771,-0.991806 1.55642,-1.361868c0.102283,-0.165496 0.0447,0.005204 0,0.194553c-0.199901,0.84679 -0.778211,1.556419 -0.778211,1.750973c0,0.194552 0.22578,0.462747 1.361868,0.194552c1.270185,-0.29985 1.983614,-1.488105 2.723736,-1.945525c0.165496,-0.102283 0.254622,0.597626 0,1.556419c-0.15791,0.59462 -0.179744,0.852663 0,0.778211c0.50839,-0.210582 0.583657,-0.778211 1.361868,-1.55642l0.194551,-0.194552l0,-0.583657l0,0" id="svg_8" stroke-width="1.5" stroke="#e33e54" fill="none"/>
  <path d="m6.344355,8.319063c-0.389105,0 -0.77821,0 -1.167315,0c-0.194553,0 -0.286354,-0.023021 -0.194553,-0.194552c0.330994,-0.618467 1.468708,-1.158593 2.140078,-1.361868c0.186204,-0.056378 0.113062,0.081491 -0.194552,0.389105c-0.307615,0.307615 -0.77821,0.583658 -1.167315,0.972763c-0.194552,0.194552 0.634123,0.460467 2.33463,0c1.849514,-0.500815 2.780719,-1.304884 2.918288,-1.167315c0.137569,0.137569 0.059815,0.425293 -0.194552,0.77821c-0.482629,0.669613 -0.965226,1.066254 -0.389105,0.972762c1.214569,-0.197098 2.413232,-0.858279 3.307393,-1.55642c0.433732,-0.338648 0.526674,-0.526675 0.389105,-0.389105c-0.275139,0.275139 -0.583657,1.945525 -0.778211,2.723736c0,0 0.63717,0.113535 1.55642,-0.389106c1.468423,-0.802924 2.63778,-2.241105 3.307393,-2.723735c0.352917,-0.254368 0.389105,0.389105 0.389105,0.77821l0,0.389105l-0.194551,0l0,0.194553" id="svg_9" stroke-width="1.5" stroke="#e33e54" fill="none"/>
  <path d="m9.457195,15.322954c-0.194552,0 -0.43031,-0.269375 -0.583657,-0.389105c-0.632268,-0.49366 -0.857914,-1.073954 -1.55642,-1.750973c-0.894526,-0.867008 -1.347874,-1.675301 -1.750973,-2.140078c-0.285034,-0.328648 -0.583658,-0.778212 -0.583658,-0.583658c0,0.389105 0.583658,0 1.55642,0c0.77821,0 1.761994,0.178509 2.33463,0.583658c0.794104,0.561841 1.174225,1.459969 1.750973,2.33463c0.302922,0.459394 0.612461,0.822638 0.389105,1.361868c-0.105291,0.254195 -0.389105,0.194552 -0.583657,0.194552c-0.194552,0 -0.670827,0.306847 -1.167315,0c-0.740122,-0.45742 -1.069304,-0.954823 -1.167315,-1.750973c-0.071314,-0.579286 0.005204,-1.317168 0.194553,-1.361868c0.423395,-0.09995 0.868572,-0.298741 1.556419,0.389105c0.687848,0.687847 1.263319,1.338241 1.361868,1.945525c0.031164,0.19204 -0.01481,0.463558 -0.194552,0.389106c-0.50839,-0.210583 -0.389105,-0.778211 -0.389105,-1.167315l0,0l0.389105,0l0,-0.194552" id="svg_10" stroke-width="1.5" stroke="#e33e54" fill="none"/>
  <path d="m9.651748,13.377429c0,0 0.137569,-0.251535 0,-0.389105c-0.137569,-0.137569 -0.194552,-0.194552 -0.194552,-0.389106c0,0 0.097088,0.76913 0.194552,2.334631c0.024178,0.388353 0.254368,0.547469 0,0.194552c-0.160876,-0.223204 -0.574935,-0.301393 -0.77821,-0.972763c-0.225513,-0.744819 -0.332122,-1.029745 -0.194552,-1.167315c0.137569,-0.137569 0.194552,0.389105 0.77821,0.972762l0.194552,0.194552l0,0" id="svg_11" stroke-width="1.5" stroke="#e33e54" fill="none"/>
  <path d="m4.787935,10.848246c-0.194552,0 -0.389105,0 -0.583658,0c0,0 -0.194552,0 -0.583657,0c-0.194553,0 -0.199757,0.044699 -0.389105,0c-0.423395,-0.09995 -0.583658,-0.389105 -0.583658,-0.389105c-0.194553,0 -0.194553,-0.194552 -0.194553,-0.194552c-0.194553,0 -0.194553,-0.194552 -0.194553,-0.389105c0,-0.194552 0,-0.389105 0,-0.389105c0,-0.194552 -0.056983,-0.251536 -0.194552,-0.389106c-0.137569,-0.137569 -0.194552,-0.194552 -0.194552,-0.389105c0,0 -0.194553,0 -0.194553,-0.194552c0,-0.194552 0,-0.389105 0,-0.583657c0,0 0,-0.194552 0,-0.389105c0,-0.194552 0.194553,-0.194552 0.194553,-0.389105c0,0 0,-0.194552 0,-0.389105c0,0 0.056983,-0.056983 0.194552,-0.194552c0.137569,-0.137569 0.194552,-0.194552 0.194552,-0.194552c0.194553,0 0.389105,0 0.389105,-0.194552c0,-0.194553 -0.074452,-0.209363 0,-0.389105c0.105291,-0.254195 0.251535,-0.056983 0.389105,-0.194552c0.137569,-0.137569 0.056983,-0.251535 0.194553,-0.389105c0.137569,-0.137569 0.194552,-0.194552 0.194552,-0.194552c0.194553,0 0.194553,-0.194552 0.389105,-0.194552c0,0 0.389105,0.194552 0.389105,0c0,-0.194552 -0.389105,0 -0.583657,0c-0.194553,0 -0.194553,0 -0.389105,0c-0.194553,0 -0.389105,0 -0.583658,0c0,0 0,0.194552 0,0.194552c0,0.194552 -0.056983,0.251536 -0.194553,0.389105c-0.137569,0.137569 -0.179743,0.314653 0,0.389105c0.254195,0.105291 0.194553,-0.194552 0.194553,-0.194552c0.194552,-0.194552 0.251535,-0.251536 0.389105,-0.389105c0.137569,-0.137569 0.056983,-0.251535 0.194553,-0.389105c0.137569,-0.137569 0.283814,0.059643 0.389105,-0.194552c0.074452,-0.179743 0.194552,-0.194552 0.389105,-0.194552c0.194552,0 0.194552,-0.194553 0.194552,-0.194553c0.194553,-0.194552 0.389105,-0.194552 0.389105,-0.194552c0.194552,0 0.389105,0 0.389105,0c0,-0.194552 0.056983,-0.251535 0.194553,-0.389105c0.137569,-0.137569 0.583657,0.194552 0.583657,0c0,-0.194552 -0.389105,0 -0.583657,0c-0.194553,0 -0.194553,0 -0.389105,0c-0.194552,0 -0.389105,0 -0.583658,0c-0.194552,0 -0.583657,0 -0.583657,0.194552c0,0.194552 0.389105,0 0.583657,0c0,0 0.194553,0 0.389105,0c0.194552,0 0.389105,0 0.389105,0c0.194553,-0.194552 0.389105,-0.194552 0.583658,-0.194552c0.194552,0 0.194552,0 0.389105,0c0.194553,0 0.194553,-0.194553 0.389105,-0.194553c0.194552,0 0.194552,0.194552 0.194552,0c0,-0.194552 -0.389105,0 -0.583658,0c-0.194552,0 -0.194552,0 -0.389105,0c-0.194552,0 -0.502862,0.036723 -0.389105,0.194553c0.359731,0.4991 0.549367,0.289155 0.972763,0.389105c0.189348,0.044699 0.251535,-0.137569 0.389105,0c0.137569,0.137569 0,0.194552 0.194553,0.194552c0.194552,0 0.446088,0.137569 0.583657,0c0.137569,-0.137569 0,-0.194552 0,-0.389105c0,-0.194552 -0.056983,-0.251536 -0.194552,-0.389105c-0.137569,-0.137569 -0.194552,-0.194552 -0.194552,-0.194552c-0.194552,0 -0.389105,0 -0.194552,0c0.194552,0 0.389105,0 0.583657,0c0,0 0.209362,0.1201 0.389105,0.194552c0.254196,0.105291 0.389105,0.194553 0.389105,0.194553c0.194553,0.194552 0.329463,0.283814 0.583658,0.389105c0.179743,0.074452 0.194552,0.194552 0.194552,0.194552c0,0.194553 0.194552,0.194553 0.194552,0.389105c0,0.194552 0.13491,0.283814 0.389105,0.389105c0.179743,0.074452 0.13491,0.283814 0.389105,0.389105c0.179744,0.074452 0.251536,0.056983 0.389106,0.194552c0.137569,0.137569 0.194552,0 0.194552,0c0,0.194552 0.056983,0.251535 0.194552,0.389105c0.137569,0.137569 0.251535,0.056983 0.389105,0.194553c0.137569,0.137569 0.269004,0.179743 0.194552,0c-0.105291,-0.254195 -0.314652,-0.209363 -0.389105,-0.389105c-0.105291,-0.254195 -0.389105,-0.194552 -0.972763,-0.77821c-0.194552,-0.194552 -0.056983,-0.446088 -0.194552,-0.583657c-0.137569,-0.137569 -0.446088,-0.332122 -0.583657,-0.194553c-0.412708,0.412708 0.164831,1.175355 0.389105,1.945526c0.17201,0.590693 0.389105,0.77821 0.389105,0.972763c0,0 -0.056983,0.332122 -0.194552,0.194552c-0.137569,-0.137569 -0.389105,-0.972763 -0.583657,-1.361868c-0.194552,-0.389105 -0.478366,-0.718567 -0.583657,-0.972763c-0.074452,-0.179743 0,0.194552 0,0.972763c0,0.583658 0,1.167315 0,1.167315c0,0.194552 -0.194552,0.194552 -0.389106,0c0,0 -0.080914,-0.342622 -0.389105,-0.972763c-0.270302,-0.55267 -0.13491,-1.078054 -0.389105,-0.972763c-0.359487,0.148904 0,0.972763 0,1.750973c0,0.194552 0.044699,0.189348 0,0c-0.09995,-0.423395 -0.329289,-1.008951 -0.583657,-1.361868c-0.160877,-0.223204 -0.194553,0 -0.194553,0c0,0.389105 0,0.583658 0,0.972763c0,0.194552 -0.13491,-0.089262 -0.389105,-0.194552c-0.179743,-0.074452 -0.389105,-0.583658 -0.389105,-0.77821c0,0 -0.194552,0 -0.389105,0c-0.194552,0 -0.34822,0.209813 -0.583658,0.77821c-0.332959,0.803835 -0.835193,1.499437 -0.972763,1.361868c-0.13757,-0.13757 -0.096542,-0.371165 -0.194552,-1.167315c-0.047542,-0.386189 0,-0.77821 0,-0.972763c0,0 0,0 0,0.194552c0,0.389105 -0.094603,0.549367 -0.194553,0.972763c-0.089398,0.378696 0,0.77821 0,1.167315c0,0 0,0.194552 0,0.389105c0,0.194552 0,0 0,-0.194552c0,-0.389105 0,-0.972763 0,-1.55642c0,-0.389105 -0.056983,-0.526674 -0.194552,-0.389105c-0.137569,0.137569 -0.194553,0.389105 -0.194553,0.972763c0,0.389105 0,0.583658 0.194553,0.77821c0,0 0,0.194552 0,0.389105c0,0.389105 0.254195,0.299844 0,0.194552c-0.179743,-0.074452 -0.538959,-0.588862 -0.583658,-0.77821c-0.09995,-0.423396 -0.509206,-0.598467 -0.583658,-0.77821c-0.105291,-0.254195 -0.251536,-0.526675 -0.389105,-0.389105c-0.137569,0.137569 0.056983,0.446088 0.194553,0.583658c0.137569,0.137569 -0.044699,0.199757 0,0.389105c0.09995,0.423395 0.602702,0.938605 0.972763,1.167315c0.165496,0.102283 0.389105,0 0.583658,0c0,0 0.194553,0 0.389105,0c0.194552,0 0.389105,0 0.389105,0c0.194553,0 0.389105,0 0.389105,0.194552c0,0.194552 -0.194552,0.389106 -0.389105,0.583658c-0.194552,0.194552 -0.503071,-0.080586 -0.77821,0.194552c-0.137569,0.137569 0,0.194552 0,0.194552c0.389105,0 0.77821,0 0.972763,0c0.389105,0 0.77821,0 0.77821,-0.194552l0.194552,0l0.194552,0" id="svg_13" stroke-width="1.5" stroke="#e33e54" fill="none"/>
  <path stroke="#e33e54" d="m10.040854,10.118385c0,-0.215439 -0.466928,-0.215439 -0.466928,-0.646316c0,-0.215439 0.149586,-0.867319 0,-1.292633c-0.236517,-0.67248 -0.466926,-0.646316 -0.466926,-0.430877c0,0.646316 -0.232322,1.492085 -0.466926,2.585265c-0.138029,0.643172 -0.466926,1.292633 -0.933851,1.292633c-0.466926,0 -0.466926,-0.215439 -0.466926,-0.430877l-0.933851,-0.646317l-0.933854,-0.430877" id="svg_14" stroke-width="1.5" fill="none"/>
  <path d="m7.122565,4.622565c-0.194552,0 -0.389105,0 -0.583658,0c-0.194552,0 -0.389105,0 -0.583658,0c-0.194552,0 -0.389105,0 -0.583657,0c-0.194552,0 -0.389105,0 -0.389105,0c-0.194552,0 -0.389105,0 -0.583657,0l-0.194553,0l-0.194552,0" id="svg_15" fill-opacity="null" stroke-opacity="null" stroke-width="1.5" stroke="#e33e54" fill="none"/>
  <path d="m12.959141,16.879374c0,-0.194551 0.058112,-0.18454 0.389105,-0.389105c0.370061,-0.22871 0.389106,-0.583657 0.583658,-0.77821c0.194552,-0.194552 0.251535,-0.251535 0.389105,-0.389105c0.137569,-0.137569 0.194552,-0.389105 0.194552,-0.389105c0.194552,0 0.314652,-0.01481 0.389105,-0.194552c0.105291,-0.254195 0.425294,-0.134737 0.778211,-0.389106c0.223204,-0.160876 0.614645,-0.118804 1.167315,-0.389105c0.63014,-0.308191 0.77821,-0.583657 0.972763,-0.583657c0,0 0.389105,-0.194552 0.389105,-0.194552c0,-0.194552 0,-0.389105 0,-0.583658l0,0" id="svg_16" fill-opacity="null" stroke-opacity="null" stroke-width="1.5" stroke="#e33e54" fill="none"/>
  <path d="m4.009725,4.23346c0,-0.194552 0.194552,-0.194552 0.194552,-0.194552c0,0 0.056983,-0.056983 0.194553,-0.194552c0.137569,-0.137569 0.251535,-0.056983 0.389105,-0.194552c0.137569,-0.137569 0.194552,-0.194553 0.194552,-0.194553c0,-0.194552 0.194553,-0.194552 0.194553,-0.194552c0.194552,0 0.251535,-0.056983 0.389105,-0.194553c0.137569,-0.137569 0.194552,-0.194552 0.194552,-0.194552c0,-0.194553 0.194552,-0.194553 0.389105,-0.194553c0.194552,0 0.389105,0 0.389105,0c0.194553,0 0.389105,0 0.583658,0c0.194552,0 0.194552,0 0.389105,0c0.194552,0 0.137569,-0.056983 0,-0.194552c-0.137569,-0.137569 -0.194552,0 -0.389105,0c-0.194552,0 -0.389105,0 -0.583658,0c0,0 -0.194552,0 -0.389105,0c-0.194553,0 -0.389105,0 -0.389105,0c-0.194552,0 -0.389105,0 -0.194552,0c0.194552,0 0.194552,0 0.389105,0c0.194553,0 0.389105,0 0.583658,0c0,0 0.194553,0 0.389105,0c0.194552,0 0.389105,0 0.389105,0c0,0 0.194552,0 0.389105,0.194552c0.194553,0.194553 0.251535,0.251536 0.389105,0.389105c0.13757,0.13757 0.389106,0.194553 0.389106,0.194553c0.194552,0 0.389105,0 0.389105,0.194552c0,0.194553 0.056983,0.056983 0.194552,0.194553c0.137569,0.137569 0.194552,0.194552 0.583657,0.389105c0,0 0.056983,-0.137569 0.194552,0c0.137569,0.137569 0.056984,0.251535 0.194553,0.389105c0.275139,0.275139 0.389105,0.194552 0.389105,0.194552c0,-0.194552 0.059643,-0.478367 -0.194552,-0.583658c-0.179743,-0.074452 -0.389106,-0.194552 -0.583658,-0.389105c-0.194552,-0.194553 -0.389105,-0.194553 -0.583657,-0.194553c-0.194552,0 -0.194552,-0.194552 -0.389105,-0.194552c-0.194552,0 -0.478367,0.059643 -0.583658,-0.194553c-0.074452,-0.179743 -0.194552,-0.389105 -0.583657,-0.389105c-0.194552,0 -0.194552,-0.194552 -0.194552,-0.194552c-0.194552,0 -0.389105,0 -0.583657,0c-0.194553,0 -0.194553,0 -0.389105,0c-0.194552,0 -0.446088,0.137569 -0.583658,0c-0.137569,-0.137569 0,-0.194553 -0.194552,-0.194553c-0.194552,0 -0.389105,0 -0.583658,0l0,0l-0.194552,0l-0.194552,0" id="svg_17" fill-opacity="null" stroke-opacity="null" stroke-width="1.5" stroke="#e33e54" fill="none"/>
  <path d="m15.682877,4.817118c-0.194552,0 -0.217094,0.187516 -0.389105,0.77821c-0.224275,0.770171 -0.194553,1.167315 -0.194553,1.361868c0,0.194552 0,0.389105 0,0.583657c0,0.194553 0,0.194553 0.194553,0.194553c0.389105,0 0.408149,-0.354948 0.77821,-0.583658c0.165497,-0.102283 0.478367,-0.329462 0.583658,-0.583658c0.074451,-0.179743 0.194551,-0.389105 0.194551,-0.583658c0,-0.194552 0,-0.389105 0,-0.389105c0,-0.194552 0,-0.389105 0,-0.583658c0,-0.194552 -0.194551,-0.194552 -0.194551,-0.194552c0,0.194552 -0.194553,0.194552 -0.389105,0.194552c-0.194553,0 -0.314654,0.01481 -0.389106,0.194552c-0.105291,0.254195 -0.583657,0.194553 -0.778211,0.389105c0,0 0.059643,0.089262 -0.194552,0.194552c-0.359486,0.148904 -0.583657,0.389105 -0.583657,0.389105c-0.194552,0.194552 -0.389105,0.194552 -0.389105,0.194552c-0.194552,0 -0.251535,0.056983 -0.389105,0.194552c-0.13757,0.13757 -0.389106,0 -0.583658,0c-0.194552,0 -0.13491,0.089262 -0.389105,0.194552c-0.179743,0.074452 -0.389105,0 -0.194552,0c0.194552,0 0.213596,-0.160395 0.583657,-0.389105c0.165496,-0.102282 0.251535,-0.056983 0.389105,-0.194552c0.13757,-0.13757 0.194553,-0.194553 0.389106,-0.194553c0.194552,0 0.389105,0 0.583657,-0.194552c0,0 0.194552,0 0.583657,0l0.194552,0l0,0" id="svg_18" fill-opacity="null" stroke-opacity="null" stroke-width="1.5" stroke="#e33e54" fill="none"/>
  <path d="m5.17704,8.513616c0,0.194552 0.389105,0.194552 0.583657,0.194552c0.583658,0 0.77821,0 0.972763,0c0.194552,0 0.389105,0 0.583657,0c0,0 0.194552,0 0.389105,0c0.194553,0 0.389105,0 0.389105,0c0.194553,0 0.478367,-0.059643 0.583658,0.194552c0.148905,0.359487 0,0.583658 0,0.583658c-0.194552,0 -0.389105,0 -0.583658,0c0,0 -0.194552,0 -0.389105,0c-0.389105,0 -0.389105,0 -0.389105,0c-0.194552,0 -0.389105,0 -0.583657,0c-0.194553,0 -0.194553,0 -0.389105,0c-0.194552,0 -0.403915,-0.1201 -0.583658,-0.194552c-0.254196,-0.105291 -0.524015,-0.283814 -0.77821,-0.389106c-0.179743,-0.074451 -0.378696,-0.089397 0,0c0.423395,0.09995 0.77821,0.389106 0.972763,0.389106c0.194553,0 0.389105,0 0.583658,0c0,0 0.056983,0.056983 0.194553,0.194552c0.137569,0.137569 0.389105,0 0.583657,0c0,0 0.194552,0 0.389105,0l0.194553,0l0.194552,0l0,0" id="svg_19" fill-opacity="null" stroke-opacity="null" stroke-width="1.5" stroke="#e33e54" fill="none"/>
  <path d="m11.208168,18.04669c0,0.194551 0,0.389105 0,0.583656c0,0.194553 0,0.194553 0,0.389107c0,0.194551 0.056982,0.251535 0.194552,0.389105c0.137569,0.137569 0.194552,0.194551 0.194552,0.194551c0.194553,0 0.194554,0.389105 0.389106,0.389105c0.194551,0 0.13757,-0.251535 0,-0.389105c-0.137569,-0.137569 -0.283814,-0.134909 -0.389106,-0.389105c-0.074451,-0.179743 -0.194552,-0.389105 -0.194552,-0.389105c0,-0.194553 -0.194552,-0.194553 -0.194552,-0.194553c-0.194552,-0.194551 -0.446088,-0.251535 -0.583657,-0.389105c-0.137568,-0.137569 -0.056982,-0.251535 -0.194552,-0.389105c-0.137569,-0.137569 -0.251535,-0.056982 -0.389105,-0.194551c-0.13757,-0.137569 -0.056985,-0.251535 -0.194553,-0.389105c-0.137569,-0.137569 -0.194552,0 -0.194552,0c0,0 0.094603,0.160261 0.194552,0.583656c0.0447,0.189348 0.056985,0.251535 0.194553,0.389105c0.137569,0.137569 0.120101,0.209362 0.194552,0.389105c0.105291,0.254196 0.194552,0.583658 0.389105,0.972763c0.194552,0.389105 0.374295,0.65811 0.194552,0.583658c-0.254195,-0.105291 -0.314653,-0.598467 -0.389105,-0.77821c-0.105291,-0.254196 -0.13491,-0.478367 -0.389105,-0.583658c-0.179744,-0.074453 -0.389106,-0.194553 -0.389106,-0.389105c0,-0.194553 -0.01481,-0.314653 -0.194552,-0.389105c-0.254195,-0.105291 -0.251536,-0.251535 -0.389105,-0.389105c-0.137569,-0.137569 -0.056984,-0.251535 -0.194552,-0.389105c-0.137569,-0.137569 -0.056982,-0.056984 -0.194552,-0.194553c-0.137569,-0.137569 -0.478367,0.059643 -0.583658,-0.194553c-0.074451,-0.179743 0,-0.389105 0,-0.389105c-0.194552,0 -0.209362,-0.1201 -0.389105,-0.194551c-0.254196,-0.105291 -0.389105,-0.194553 -0.389105,-0.389106c0,-0.194552 0,-0.194552 0,-0.194552c-0.194552,-0.194552 -0.251535,-0.251535 -0.389105,-0.389105c-0.137569,-0.137569 -0.194552,-0.194552 -0.389105,-0.389105c0,0 -0.056983,-0.056983 -0.194552,-0.194552c-0.137569,-0.137569 -0.446088,0.137569 -0.583658,0c-0.137569,-0.137569 0.228229,-0.028652 0.389105,0.194552c0.254368,0.352917 0.389105,0.583657 0.389105,0.77821c0,0 -0.056983,-0.056983 -0.194552,-0.194552c-0.137569,-0.137569 0.232314,-0.021683 0.77821,0.972762c0.209342,0.381351 0.77821,0.972765 0.77821,0.778212c0,-0.194553 -0.344406,-0.005205 -0.389105,-0.194553c-0.09995,-0.423395 -0.194552,-0.583658 -0.194552,-0.583658c0,-0.194551 -0.478366,-0.329462 -0.583657,-0.583657c-0.074452,-0.179743 0.010012,-0.252665 -0.194553,-0.583657c-0.22871,-0.370061 -0.555006,-0.422781 -0.77821,-0.583657c-0.352917,-0.254368 -0.549367,-0.483708 -0.972763,-0.583658c-0.189348,-0.044699 -0.251535,-0.056983 -0.389105,-0.194552c-0.13757,-0.137569 -0.194553,-0.194552 -0.194553,-0.194552c-0.194552,0 -0.056983,-0.251535 -0.194552,-0.389105c-0.137569,-0.137569 -0.314653,-0.209362 -0.389105,-0.389105c-0.105291,-0.254195 -0.194553,-0.389106 -0.194553,-0.389106c0,0 -0.194552,0 -0.194552,-0.194552c0,-0.194552 -0.056983,-0.251535 -0.194553,-0.389105c-0.137569,-0.137569 -0.251535,-0.056983 -0.389105,-0.194552c-0.137569,-0.137569 0,-0.389105 0,-0.583657c0,0 0.251535,-0.137569 0.389105,0c0.137569,0.137569 0.389105,0.389105 0.389105,0.389105c0.194553,0.194552 0.446088,0.056983 0.583658,0.194552c0.137569,0.137569 0.09227,0.223609 0.194552,0.389105c0.22871,0.370061 0.583658,0.194552 0.77821,0.389105c0,0 0.354948,-0.175508 0.583658,0.194553c0.102282,0.165496 0.194552,0.194552 0.194552,0.194552c0,0.194552 0.688949,0.13491 0.583658,0.389105c-0.074452,0.179743 -0.194552,-0.194552 -0.389105,-0.389105c-0.583658,-0.583657 -0.77821,-0.778211 -0.972763,-1.167315c0,0 -0.283814,0.059643 -0.389105,-0.194552c-0.074452,-0.179743 0.134737,-0.158364 0.389105,0.194552c0.48263,0.669613 1.092864,1.376678 1.167315,1.55642c0.105291,0.254195 0.194552,0.389105 0.194552,0.194552c0,-0.194552 0,-0.389104 -0.389105,-0.77821c-0.194553,-0.194553 -0.169324,-0.022313 0,0.194552c0.69814,0.89416 1.256577,1.885882 1.361868,2.140078c0.074452,0.179743 0.044699,-0.005204 0,-0.194552c-0.1999,-0.84679 -0.867472,-1.302225 -0.972763,-1.55642c-0.074452,-0.179743 -0.023802,0.012841 0.194552,0.389105c0.704173,1.213416 1.451129,1.885882 1.55642,2.140078c0.074451,0.179744 0.089262,0.329463 0.194553,0.583657c0.074452,0.179743 0.074451,-0.014809 0,-0.194551c-0.105291,-0.254196 -0.483708,-0.549368 -0.583658,-0.972763c-0.044699,-0.189348 0.295752,0.452075 0.583658,0.77821c0.464234,0.525875 1.151285,1.048031 1.361867,1.556421c0.074451,0.179743 0,-0.194553 0,-0.389105c0,-1.167316 0.389105,-2.334631 -0.194552,-2.334631c-0.194552,0 -0.028805,0.822639 0.194552,1.361868c0.315874,0.762585 0.23898,1.527617 0.778211,1.750973c0.254196,0.105291 0.291353,-0.569221 0.389105,-1.556421c0.038342,-0.387211 0.039231,-0.895369 0.194552,-0.77821c1.130753,0.852928 0.485646,1.927586 0.583657,2.723736c0.023771,0.193094 0,-0.194553 0,-0.583658c0,-0.77821 0,-1.361868 0,-1.750973c0,-0.194552 0.022542,-0.007036 0.194553,0.583658c0.224275,0.77017 0.194552,1.361868 0.194552,1.945524c0,0.194553 0,0.194553 0,0.194553c0.194552,0 0.389105,0 0.583657,0c0.194552,0 0.389105,0 0.77821,-0.389105c0.194553,-0.194553 0.209363,-0.314653 0.389106,-0.389105c0.254195,-0.105291 0.446088,-0.251535 0.583657,-0.389105c0.13757,-0.137569 0.056984,-0.251535 0.194552,-0.389105c0.137569,-0.137569 0.389105,0 0.194552,0c-0.194552,0 -0.391617,-0.031164 -0.583657,0c-0.607285,0.098549 -0.64064,0.251535 -0.778211,0.389105c-0.137568,0.137569 -0.194552,0.194551 0,0.194551c0.194553,0 0.254866,-0.06566 0.778211,-0.389105c0.234046,-0.144648 0.389105,-0.194551 0.583657,-0.389105c0.194552,-0.194553 0.403914,-0.314651 0.583658,-0.389105c0.254195,-0.105291 0.470595,-0.276043 0.77821,-0.583658c0.307615,-0.307614 0.613277,-0.2402 0.972763,-0.389105c0.254194,-0.105291 0.478365,-0.329463 0.583656,-0.583657c0.074451,-0.179743 0.194553,-0.194552 0.389107,-0.194552c0,0 0.194551,0 0.194551,0c0,-0.194552 0.092272,-0.223609 0.194553,-0.389105c0.22871,-0.370061 0.583656,-0.194553 0.583656,-0.389106c0,0 -0.137569,-0.056983 0,-0.194552c0.137569,-0.13757 0,0 0,0c-0.194551,0 -0.549366,0.094603 -0.972761,0.194552c-0.378698,0.089398 -0.594067,0.105154 -0.972763,0.194552c-0.423395,0.099951 -0.39431,0.344406 -0.583658,0.389106c-0.423395,0.09995 -0.583657,0.389105 -0.77821,0.583657c-0.194552,0.194552 -0.389105,0.194552 -0.583658,0.389105c0,0 0.059643,0.089261 -0.194552,0.194552c-0.179743,0.074452 -0.446087,0.251536 -0.583657,0.389106c-0.137569,0.137569 -0.057303,-0.067352 0.389105,-0.389106c0.705833,-0.508737 1.167315,-0.972762 1.750973,-1.55642c0.389105,-0.389105 0.389105,-0.778209 0.583658,-0.972762c0.194551,-0.194552 0.360048,-0.481375 0.194551,-0.583657c-0.37006,-0.22871 -0.225922,0.738572 -0.972761,1.361867c-0.667994,0.557493 -1.50715,0.850457 -2.334631,1.361868c-0.740122,0.45742 -1.327578,0.67826 -1.750973,0.778211c-0.189348,0.044699 -0.026605,-0.028563 0.389105,-0.389106c0.734877,-0.637356 1.55642,-1.361867 1.750973,-1.750973c0.194552,-0.389105 0.194552,-0.77821 0.194552,-0.77821c-0.194552,0 -0.972762,0.77821 -1.750973,1.55642c-0.77821,0.77821 -1.418851,1.110331 -1.55642,0.972762c-0.137569,-0.137569 0.121306,-0.436989 0.778211,-1.361867c0.879889,-1.238825 1.55642,-1.556419 1.55642,-1.750973c0,-0.194553 -0.452076,0.295752 -0.778211,0.583657c-1.051752,0.928469 -1.499117,1.818325 -1.945525,2.140078c-0.352917,0.254368 -0.234459,-0.042843 0.389105,-0.583657c0.734878,-0.637357 1.55642,-1.361868 1.945525,-1.750973c0.389106,-0.389105 0.307614,-0.113062 0,0.194552c-0.615229,0.615229 -1.850923,0.549366 -1.750973,0.972762c0.044699,0.189348 0.586309,0.064187 1.361868,0c1.179385,-0.097609 1.945525,-0.583657 2.33463,-0.77821c0,0 0.32929,0.230741 0.583658,0.583657c0.160876,0.223204 0.194552,0.778211 0.194552,0.972763c0,0.194552 0.01481,0.269005 0.194552,0.194552c0.50839,-0.210582 0.641438,-0.703081 1.167315,-1.167315c0.326134,-0.287906 0.418724,-0.434752 0.778212,-0.583657c0.254194,-0.105291 0.134909,-0.283813 0.389105,-0.389105c0.179743,-0.074451 0.360453,-0.033676 0.583656,-0.194552c0.352917,-0.254369 0.778212,-0.389106 0.972763,-0.389106c0,0 0.22361,-0.092271 0.389105,-0.194552c0.370062,-0.22871 0.194553,-0.583657 0.389105,-0.583657c0,0 0.194553,-0.194552 0.194553,-0.389105c0,-0.194552 0,-0.389105 0,-0.389105c0,-0.194553 0,-0.389106 -0.194553,-0.389106c-0.194551,0 -0.235733,-0.055619 -0.77821,0.389106c-0.212776,0.174435 -0.194551,0.583657 -0.389105,0.77821c0,0 0.175508,0.354947 -0.194553,0.583657c-0.165495,0.102282 -0.134737,0.230741 -0.389105,0.583658c-0.160875,0.223204 -0.194551,0.389105 -0.194551,0.389105c0,0 -0.055618,-0.235735 0.389105,-0.778211c0.523306,-0.63833 0.718395,-0.814398 0.972763,-1.167315c0.321753,-0.446408 0.389105,-0.583658 0.389105,-0.972763c0,-0.194552 0,-0.389105 0,-0.583657c0,-0.194552 0.194551,-0.389105 0.194551,-0.389105c0,-0.194552 0.194553,-0.194552 0.194553,-0.389106c0,-0.194552 0,0.194553 0,1.167315c0,0.583657 -0.283813,0.718569 -0.389105,0.972763c-0.074451,0.179743 0,0.389105 0,0.194552c0,-0.389105 -0.089397,-0.399514 0,-0.778211c0.099949,-0.423394 0.194551,-0.583657 0.194551,-1.167315c0,-0.194552 0.275139,-0.503072 0,-0.778211c-0.137569,-0.137568 -0.194551,0 -0.194551,-0.194552c0,-0.194552 0,-0.389105 0,-0.583657c0,0 0,-0.194552 0,-0.389105c0,-0.194552 0,-0.389105 0,-0.389105c0,-0.194552 0,-0.389105 0,-0.583658c0,-0.194552 0,-0.194552 0,-0.389105c0,-0.194553 0,0.194552 0,0.389105c0,0.194552 0.194551,0.583657 0.389105,0.972763c0.194551,0.389105 0.389105,0.972763 0.389105,1.167315c0,0 0,0 0,-0.583657c0,-0.389105 0,-0.77821 0,-0.972763c0,-0.194552 0,-0.389105 0,-0.389105c0,-0.194552 -0.194553,-0.389105 -0.194553,-0.389105c-0.194551,-0.194552 -0.194551,-0.389105 -0.389105,-0.583658c-0.194551,-0.194552 -0.1201,-0.209362 -0.194551,-0.389105c-0.105291,-0.254196 -0.134911,-0.478367 -0.389105,-0.583658c-0.179745,-0.074452 -0.389105,-0.194552 -0.389105,-0.389105c0,-0.194553 -0.251537,-0.056983 -0.389107,-0.194553c-0.137569,-0.137569 0,-0.194552 -0.194551,-0.194552c-0.194553,0 -0.194553,-0.194552 -0.194553,-0.194552c0,-0.194552 0,-0.389105 -0.194551,-0.389105c-0.194553,0 -0.194553,-0.194552 -0.389105,-0.194552c-0.194553,0 -0.251535,0.137569 -0.389105,0c-0.137569,-0.137569 -0.134911,-0.283814 -0.389107,-0.389105c-0.179743,-0.074451 -0.194551,-0.194553 -0.389105,-0.194553c-0.194551,0 -0.389105,0 -0.583656,0c-0.194553,0 -0.389105,0 -0.583658,0c-0.194552,0 -0.194552,0 -0.389105,0c-0.194552,0 -0.251535,0.251536 -0.389105,0.389105c-0.13757,0.13757 -0.194553,0.194553 -0.194553,0.194553c-0.194552,0 -0.251535,0.056983 -0.389105,0.194552c-0.137569,0.137569 0,0.389105 -0.194552,0.389105c-0.194552,0 -0.194552,0.194552 -0.194552,0.194552c-0.194552,0 -0.389105,0 -0.583657,0c-0.194552,0 -0.251535,-0.13757 -0.389106,0c-0.137569,0.137569 -0.056983,0.251535 -0.194552,0.389105c-0.137569,0.137569 -0.389105,0.194552 -0.389105,0.194552c-0.194552,0.194552 -0.389105,0.194552 -0.389105,0.194552c-0.194552,0 -0.314652,0.01481 -0.389105,0.194552c-0.105291,0.254195 -0.329463,0.478367 -0.583658,0.583658c-0.179743,0.074452 -0.1201,0.01481 -0.194552,0.194552c-0.105291,0.254195 -0.251535,0.251535 -0.389105,0.389105c-0.137569,0.137569 -0.389105,0.194552 -0.389105,0.194552c0,0 -0.194552,0 0,0c0,0 0.389105,0 0.77821,0c0,0 0.269819,-0.178523 0.778211,-0.389105c0.179743,-0.074452 0.446088,0.137569 0.583657,0c0.137569,-0.137569 0,-0.389105 0.194552,-0.389105c0.194552,0 0.389105,-0.194552 0.778211,-0.389105c0,0 0.056983,-0.251535 0.194552,-0.389105c0.137569,-0.137569 0.251535,-0.056983 0.389105,-0.194552c0.137569,-0.137569 0.209362,0.074452 0.389105,0c0.254195,-0.105291 0.446088,-0.056983 0.583657,-0.194552c0.137569,-0.13757 0.01481,-0.1201 0.194553,-0.194553c0.254195,-0.105291 0.389105,-0.194552 0.583657,-0.194552c0.194552,0 0.194552,0 0.389106,0c0.194551,0 0.251535,-0.056983 0.389105,-0.194552c0.137569,-0.137569 0.389105,0 0.583656,0.194552c0,0 0.194553,0 0.194553,0.194552c0,0 0.036188,0.134738 0.389105,0.389105c0.223206,0.160877 0.389105,0.194552 0.389105,0.194552c0,0.194552 0.134911,0.283814 0.389105,0.389105c0.179745,0.074452 0.056984,0.251536 0.194553,0.389105c0.137569,0.137568 0.194551,0 0.194551,0c0,0.194552 0.120102,0.209362 0.194553,0.389105c0.105291,0.254195 0.194551,0.389105 0.389105,0.389105c0,0 0.194553,0.194552 0.194553,0.194552c0,0.194552 -0.059643,0.478367 0.194551,0.583658c0.179745,0.074452 0.134911,0.089262 0.389105,0.194552c0.179745,0.074452 0.194553,0.194552 0.194553,0.389105c0,0.194552 -0.074451,0.209362 0,0.389105c0.105291,0.254194 0.194551,0.389105 0.389105,0.583657c0,0 -0.137569,0.251535 0,0.389105c0.137569,0.137568 0.194551,0.194553 0.194551,0c0,-0.194552 0,-0.389105 0,-0.389105c0.194553,0 0.194553,-0.194552 0.194553,-0.389105c0,-0.194552 0,-0.389105 0,-0.389105c0,0.194552 0,0.389105 0,0.77821c0,0 0,0.194552 0,0.389105c0,0.194553 0,0.389106 0,0.389106c0,0 -0.056984,0.056982 -0.194553,0.194552c-0.137569,0.137569 -0.20936,0.1201 -0.389105,0.194552c-0.254194,0.105291 -0.194551,0.194552 -0.194551,0c0,-0.194552 0.20936,-0.314652 0.389105,-0.389105c0.254194,-0.105291 0.283813,-0.524015 0.389105,-0.778211c0.074451,-0.179743 0,-0.389105 0,-0.77821c0,-0.194552 0,-0.389105 0,-0.583658c0,-0.194552 0.194551,-0.389105 0,-0.389105c-0.194551,0 -0.074451,0.403914 0,0.583657c0.105291,0.254196 0.194553,0.389105 0.194553,0.389105c0,0.389105 0,0.583657 0,0.77821c0,0 0.074453,0.403914 0,0.583658c-0.105291,0.254195 -0.194553,0.194552 -0.194553,0.194552c-0.194553,0.194552 -0.403913,0.314652 -0.583658,0.389105c-0.254194,0.105291 -0.418724,0.2402 -0.77821,0.389105c-0.254194,0.105291 -0.160261,0.483707 -0.583658,0.583657c-0.189346,0.044699 -0.251535,0.056983 -0.389105,0.194553c-0.137569,0.137569 -0.308517,0.113966 -0.583656,0.389105c-0.275139,0.275139 -0.194553,0.389105 -0.194553,0.389105c-0.389105,0.389105 -0.446089,0.64064 -0.583658,0.77821c-0.137569,0.137568 -0.194551,0 -0.389105,0.194553c-0.194551,0.194552 -0.251535,0.251534 -0.389105,0.389105c-0.137569,0.137569 0.036188,0.059815 0.389105,-0.194552c0.223206,-0.160876 0.333488,-0.430286 0.778212,-0.972763c0.174435,-0.212776 0.470018,-0.537174 0.77821,-1.167315c0.270302,-0.55267 0.478365,-1.107673 0.583656,-1.361867c0.148905,-0.359488 0.251537,-0.64064 0.389107,-0.778211c0.137569,-0.137569 -0.074451,-0.403914 0,-0.583657c0.105291,-0.254194 0.494396,-0.134909 0.389105,-0.389105c-0.074451,-0.179744 -0.344406,0.005205 -0.389105,0.194552c-0.099951,0.423395 -0.573647,1.41998 -0.778212,1.750973c-0.22871,0.370061 -0.64064,0.446087 -0.77821,0.583657c-0.275139,0.275139 -0.523842,0.814399 -0.77821,1.167315c-0.321753,0.446408 -0.583658,0.389105 -0.77821,0.77821c0,0 -0.056984,0.332123 -0.194553,0.194552c-0.275139,-0.275139 0.074923,-0.656034 0.583658,-1.361867c0.321753,-0.446409 0.417177,-1.154503 0.583656,-1.55642c0.235437,-0.568398 0.483709,-1.133026 0.583658,-1.55642c0.044699,-0.189348 0,-0.583658 0,-0.77821c0,0 0.137569,-0.332122 0,-0.194552c-0.137569,0.137569 -0.314594,0.339897 -0.583658,1.167315c-0.365965,1.125409 -0.290556,1.921898 -0.389105,2.529182c-0.062328,0.384082 -0.094603,0.938474 -0.194551,1.361868c-0.089397,0.378696 -0.194553,0.583657 -0.389105,0.583657c0,0 -0.251535,0.137568 -0.389105,0c-0.275139,-0.275139 -0.023771,-0.585114 0,-0.77821c0.098009,-0.79615 0.294022,-1.756804 0.389105,-2.529182c0.098009,-0.796151 0.299707,-1.372277 0.389105,-1.750973c0.099949,-0.423395 0.194551,-0.583657 0.194551,-0.77821c0,-0.194552 0,-0.389105 -0.194551,-0.389105c0,0 -0.283813,0.059642 -0.389105,-0.194552c-0.074451,-0.179744 0,-0.194553 0,-0.389105c0,-0.194552 -0.194553,-0.194552 -0.389105,-0.194552c-0.194553,0 -0.194553,0.194552 -0.194553,0.389105c0,0.972763 0,1.361868 0,1.750973c0,0.194552 -0.094603,0.743919 -0.194552,1.167315c-0.134097,0.568045 -0.194552,0.583658 -0.194552,0.972763c0,0.194552 0,0.389105 0,0.389105c0,-0.194552 -0.194552,-1.167315 -0.194552,-1.361868c0,-0.972762 0,-1.750972 0,-2.33463c0,-0.389105 -0.056983,-0.835193 -0.194552,-0.972763c-0.13757,-0.13757 -0.389106,0 -0.583658,0.389105c-0.194552,0.389105 -0.389105,1.167315 -0.389105,2.33463c0,0.583657 0,1.55642 0,1.945525c0,0.194552 0.137569,0.446088 0,0.583657c-0.137569,0.137569 -0.389105,0 -0.389105,-0.389105c0,-0.194552 0,-0.972762 0,-1.750973c0,-0.77821 0,-1.55642 0,-1.55642c0,-0.194552 0,-0.389105 0,-0.583658c0,-0.194552 0,0 0,0.583658c0,0.77821 -0.153666,1.571681 -0.389105,2.140078c-0.16648,0.401917 -0.483708,0.938472 -0.583658,1.361867c-0.044699,0.189348 -0.251535,0.251536 -0.389105,0.389106c-0.137569,0.137569 -0.194552,0.194552 -0.194552,0c0,-0.583658 -0.134097,-1.182929 0,-1.750973c0.09995,-0.423396 0.389105,-0.583658 0.583657,-0.778211c0.194552,-0.194552 0.383901,-0.538958 0.194552,-0.583657c-0.423395,-0.09995 -0.583657,1.167315 -0.972762,1.55642c-0.972762,0.972763 -1.628797,1.436789 -2.334631,1.945525c-0.446408,0.321753 -0.972762,0.389105 -1.750973,0.389105c-0.389105,0 -0.972762,-0.194552 -0.972762,0c0,0.194552 0.238981,0.223356 0.77821,0c0.50839,-0.210582 0.944111,-0.617333 1.167315,-0.77821c0.352917,-0.254369 0.619845,-0.718395 0.972763,-0.972763c0.446408,-0.321753 0.77821,-0.583657 0.972762,-0.77821c0.194552,-0.194553 0.403914,-0.509207 0.583657,-0.583658c0.254196,-0.105291 0.194553,-0.389105 0,-0.389105c-0.194552,0 -0.755159,0.426124 -1.361867,0.77821c-0.752529,0.436709 -1.304564,0.456458 -1.750973,0.778211c-0.352918,0.254368 -0.549368,0.483707 -0.972763,0.583657c-0.189348,0.044699 -0.314653,0.374295 -0.389105,0.194552c-0.105291,-0.254195 0.64397,-0.06566 1.167315,-0.389105c0.702141,-0.433947 1.033219,-0.882281 1.361867,-1.167315c0.464778,-0.4031 0.749559,-0.617333 0.972763,-0.77821c0.352917,-0.254368 0.583657,-0.194552 0.389105,-0.194552c-0.194552,0 -0.545846,0.087239 -1.361868,0.389105c-0.752334,0.278306 -1.518609,0.476344 -2.33463,0.778211c-0.752334,0.278307 -0.77821,0.194552 -0.972763,0.194552c-0.389105,0 -0.573249,0.089398 -0.194552,0c0.423395,-0.09995 1.795401,-0.554854 2.33463,-0.778211c0.50839,-0.210582 0.793019,-0.703757 0.972762,-0.77821c0.254195,-0.105291 0.478367,-0.13491 0.583658,-0.389105c0.074452,-0.179743 0.494396,-0.13491 0.389105,-0.389105c-0.074452,-0.179743 -0.483707,0.160262 -0.583658,0.583658c-0.044699,0.189348 0.194553,0.194552 0.583658,0.194552c0.77821,0 1.327578,-0.094603 1.750973,-0.194552c0.189348,-0.044699 0.583657,-0.389105 0.583657,-0.583658c0,0 0.194552,0 0.389105,0c0.194552,0 0.194552,-0.194552 0.389106,-0.194552c0.194552,0 0.194552,0.194552 0,0.194552c0,0 0,0.389105 -0.389106,0.77821c-0.389105,0.389105 -0.583657,0.77821 -0.583657,1.361868c0,0.194552 0.194552,0.389105 0.77821,0.389105c0.583658,0 0.987573,0.074452 1.167315,0c0.254195,-0.105291 0.446088,-0.332122 0.583657,-0.194552c0.275139,0.275139 0,0.77821 0,1.167315c0,0.194552 0,0.389106 0,0.389106c0,0 0,-0.389106 0.194553,-0.778211c0.194552,-0.389105 0.194552,-0.77821 0.194552,-1.167315c0,-0.194552 0,0 0,0.389106c0,0.77821 0.006118,1.63659 -0.389106,2.33463c-0.542243,0.957703 -1.522129,1.45647 -1.945525,1.55642c-0.378695,0.089397 -0.389105,0 -0.583657,0c-0.194552,0 -0.485646,-0.565717 -0.583657,-1.361868c-0.095084,-0.772379 0.389105,-1.167315 0.389105,-1.361868c0,-0.194552 0.194552,0 0.194552,0.194552c0,0.194553 -0.146948,0.998445 -0.583657,1.750973c-0.352087,0.606709 -0.389106,0.778211 -0.194552,0.583658c0.194552,-0.194552 0.932672,-0.795222 1.361867,-1.750973c0.356428,-0.793709 0.583658,-1.55642 0.972763,-1.945525c0.194552,-0.194552 0.389105,-0.583658 0.194552,-0.583658c-0.194552,0 0,0.583658 0,1.361868c0,0.583657 -0.032094,0.776885 0,0.389105c0.097609,-1.179384 0.291496,-1.544351 0.389105,-2.723735c0.064187,-0.775558 0.047543,-1.1644 0,-0.77821c-0.098011,0.796151 -0.389105,1.55642 -0.389105,1.945525c0,0.389106 -0.194552,0.389106 -0.194552,0.583658c0,0.194552 -0.178796,-0.21537 0,-0.972763c0.09995,-0.423395 0.194552,-0.77821 0.194552,-0.77821c0,-0.389105 0.105291,-0.643301 0,-0.389105c-0.148904,0.359487 -0.074921,1.045139 -0.583657,1.750973c-0.160876,0.223205 0.058112,0.399117 0.389105,0.194552c0.370061,-0.228711 0.899116,-1.067472 1.361868,-1.750973c0.830667,-1.226921 1.067365,-1.716683 1.167315,-2.140078c0.044699,-0.189348 0.194551,-0.389105 0.194551,-0.194552c0,0.194552 -0.094603,0.160263 -0.194551,0.583657c-0.044699,0.189348 -0.209362,0.314654 -0.389105,0.389105c-0.50839,0.210582 -0.524015,0.672919 -0.778211,0.77821c-0.179743,0.074452 -0.389106,0 -0.389106,0l-0.194552,0l-0.194552,0l0,0.194552" id="svg_20" fill-opacity="null" stroke-opacity="null" stroke-width="1.5" stroke="#e33e54" fill="none"/>
  <path d="m18.601164,6.957196c0,-0.194553 0,-0.583658 0,-0.583658c0.194553,-0.194552 0.120102,-0.403914 0.194553,-0.583658c0.105291,-0.254194 0.194551,-0.194552 0.194551,-0.389105c0,-0.194553 0.089262,-0.13491 0.194553,-0.389105c0.074451,-0.179743 0,-0.194552 -0.194553,-0.194552c0,0 -0.194551,0 -0.389105,0c-0.389105,0 -0.389105,0.194553 -0.77821,0.583658c-0.194553,0.194553 -0.056984,0.446088 -0.194553,0.583657c-0.137569,0.137568 -0.194551,0 -0.194551,0.389105c0,0 0,0.194552 0,0.194552c0.194551,0 0.788618,0.089398 1.167315,0c0.423395,-0.09995 0.672918,-0.329463 0.77821,-0.583658c0.148903,-0.359486 0.137569,-0.64064 0,-0.77821c-0.137569,-0.137568 -0.134909,-0.283814 -0.389105,-0.389105c-0.179743,-0.074451 -0.389105,0 -0.583656,0c-0.194553,0 -0.194553,0 -0.389105,0c-0.194553,0 -0.478367,-0.059642 -0.583658,0.194552c-0.148903,0.359487 0,0.583658 0,0.77821c0,0.194552 0.194551,0.194552 0.583658,0.194552l0.194551,0.194553l0.194553,0l0.194551,0" id="svg_21" fill-opacity="null" stroke-opacity="null" stroke-width="1.5" stroke="#e33e54" fill="none"/>
  <path d="m12.764588,17.26848c0,0 0.033676,-0.165901 0.194552,-0.389107c0.254368,-0.352917 0.583658,-0.972762 0.583658,-1.167315c0,-0.194552 0.179743,-0.269004 0,-0.194552c-0.254196,0.105291 -0.32929,0.230741 -0.583658,0.583657c-0.160876,0.223206 -0.194552,0.389105 -0.389105,0.389105c-0.194552,0 -0.446088,0.056984 -0.583657,0.194553c-0.137568,0.137569 0,0.194551 0,0.389105c0,0.194553 0.01481,0.074451 0.194552,0c0.254195,-0.105291 0.478366,-0.329462 0.583657,-0.583658c0.074451,-0.179743 0.194552,-0.389105 0.194552,-0.583657l0.194552,0l0.194552,0" id="svg_22" fill-opacity="null" stroke-opacity="null" stroke-width="1.5" stroke="#e33e54" fill="none"/>
  <path d="m5.95525,13.377429c0,0 -0.194552,0 -0.194552,-0.194552c0,-0.194552 -0.251535,-0.056983 -0.389105,-0.194552c-0.137569,-0.137569 -0.251535,-0.056983 -0.389105,-0.194552c-0.13757,-0.13757 0,-0.194553 -0.194552,-0.194553c-0.194552,0 -0.251535,-0.056983 -0.389105,-0.194552c-0.13757,-0.137569 -0.059643,0.089261 0.194552,0.194552c0.179743,0.074452 0.389105,0 0.389105,0c0.389105,0.194553 0.583658,0.389106 0.77821,0.583658c0.194552,0.194552 0.389105,0.194552 0.583658,0.194552c0.194552,0 0.194552,0 0.194552,0.194552c0,0 0.389105,0.583657 0.77821,0.583657c0,0 0,0 0,0c-0.194552,0 -0.583657,-0.194552 -0.77821,-0.389105c-0.194552,-0.194552 -0.251535,-0.446088 -0.389105,-0.583657c-0.13757,-0.137569 -0.389105,-0.194552 -0.389105,-0.194552c0,-0.194552 -0.194552,-0.194552 -0.389105,-0.389106c0,0 -0.194552,-0.194552 -0.389105,-0.389105l0,-0.194552" id="svg_23" fill-opacity="null" stroke-opacity="null" stroke-width="1.5" stroke="#e33e54" fill="none"/>
 </g>
</svg>