<?xml version="1.0" encoding="UTF-8"?><!DOCTYPE svg PUBLIC "-//W3C//DTD SVG 1.1//EN" "http://www.w3.org/Graphics/SVG/1.1/DTD/svg11.dtd"><svg xmlns="http://www.w3.org/2000/svg" xmlns:xlink="http://www.w3.org/1999/xlink"><defs>
<clipPath id="clip0_1_270">
<rect width="78" height="78" fill="white"/>
</clipPath>

<clipPath id="clip0_2711_12">
<rect width="24" height="24" fill="white"/>
</clipPath>

<clipPath id="clip0_1_280">
<rect width="79" height="79" fill="white"/>
</clipPath>

<clipPath id="clip0_2711_43">
<rect width="15" height="16" fill="white"/>
</clipPath>

<clipPath id="clip0_1_376">
<rect width="18" height="19" fill="white"/>
</clipPath>

<clipPath id="clip0_1_236">
<rect width="77" height="77" fill="white"/>
</clipPath>

<clipPath id="clip0_2711_47">
<rect width="19" height="20" fill="white"/>
</clipPath>

<clipPath id="clip0_1_380">
<rect width="22" height="23" fill="white"/>
</clipPath>

<clipPath id="clip0_2711_49">
<rect width="20" height="20" fill="white"/>
</clipPath>

<clipPath id="clip0_1_382">
<rect width="23" height="23" fill="white"/>
</clipPath>

<clipPath id="clip0_2711_39">
<rect width="15" height="16" fill="white"/>
</clipPath>

<clipPath id="clip0_1_372">
<rect width="18" height="19" fill="white"/>
</clipPath>
</defs><symbol id="architect" viewBox="0 0 78 78"><g fill="none">
<g clip-path="url(#clip0_1_270)">
<path d="M34.225 44.5933H4.8244C3.48009 44.5933 3.48009 42.561 4.8244 42.561H31.3762C32.8872 42.561 32.889 40.2765 31.3762 40.2765H7.07683V6.60196H69.1087V40.2765H61.7551C60.2448 40.2765 60.2418 42.561 61.7551 42.561H71.7747C73.1184 42.561 73.1184 44.5933 71.7747 44.5933H59.1105C57.6002 44.5933 57.5978 46.8784 59.1105 46.8784H71.7747C73.5945 46.8784 75.0751 45.3972 75.0751 43.5775C75.0751 41.7571 73.5945 40.2765 71.7747 40.2765H71.3939V6.60196H71.7747C73.5945 6.60196 75.0751 5.12077 75.0751 3.30098C75.0751 1.48059 73.5945 0 71.7747 0H4.8244C3.00401 0 1.52342 1.48059 1.52342 3.30098C1.52342 5.11006 2.98676 6.58411 4.79167 6.60196V40.2765C2.98676 40.2943 1.52342 41.7678 1.52342 43.5775C1.52342 45.3972 3.00401 46.8784 4.8244 46.8784H34.225C35.7353 46.8784 35.7377 44.5933 34.225 44.5933ZM4.8244 2.28516H71.7747C73.1184 2.28516 73.1184 4.3168 71.7747 4.3168H4.8244C3.47949 4.3168 3.48128 2.28516 4.8244 2.28516Z" fill="#4C858B"/>
<path d="M21.1878 10.7348C21.1878 9.73152 20.3713 8.91565 19.368 8.91565H12.1953C11.192 8.91565 10.3761 9.73152 10.3761 10.7348V15.1659C10.3761 16.1692 11.192 16.9851 12.1953 16.9851H19.368C20.3713 16.9851 21.1878 16.1692 21.1878 15.1659V10.7348ZM18.9026 14.6999H12.6607V11.2002H18.9026V14.6999Z" fill="#4C858B"/>
<path d="M21.1878 21.3234C21.1878 20.3201 20.3713 19.5042 19.368 19.5042H12.1953C11.192 19.5042 10.3761 20.3201 10.3761 21.3234V25.7545C10.3761 26.7578 11.192 27.5737 12.1953 27.5737H19.368C20.3713 27.5737 21.1878 26.7578 21.1878 25.7545V21.3234ZM18.9026 25.2885H12.6607V21.7888H18.9026V25.2885Z" fill="#4C858B"/>
<path d="M19.368 30.0925H12.1953C11.192 30.0925 10.3761 30.9084 10.3761 31.9117V36.3428C10.3761 37.3461 11.192 38.162 12.1953 38.162H19.368C20.3713 38.162 21.1878 37.3461 21.1878 36.3428V31.9117C21.1878 30.9084 20.3713 30.0925 19.368 30.0925ZM18.9026 35.8774H12.6607V32.3771H18.9026V35.8774Z" fill="#4C858B"/>
<path d="M69.5224 51.9159C68.2781 51.3809 66.973 50.9989 65.6436 50.74L54.0672 48.4894V45.6288C57.3182 43.4114 59.0779 40.2705 59.4612 36.7434C61.1483 36.6095 62.4807 35.1938 62.4807 33.4728V31.1246C65.2318 29.9284 64.8599 25.9139 61.9493 25.2367V24.3298C61.9493 16.1824 55.3443 9.57684 47.1963 9.57684H45.9597C37.8117 9.57684 31.2068 16.1824 31.2068 24.3298V25.2361C28.2973 25.9133 27.9242 29.9284 30.6759 31.1246V33.4722C30.6759 35.1938 32.0078 36.6095 33.6954 36.7428C34.0769 40.2539 35.8152 43.3954 39.0894 45.6288V48.4888L27.513 50.74C26.1836 50.9989 24.8785 51.3803 23.6342 51.9159C18.9371 53.9374 16.6454 57.1646 16.6454 61.723V64.0701C16.6454 65.5804 18.93 65.5828 18.93 64.0701V61.7236C18.93 58.3001 20.4856 55.9328 23.8978 54.2975C24.0353 54.9057 26.1288 60.5882 26.1288 68.5279V75.7155H21.3008C19.9916 75.7155 18.93 74.6538 18.93 73.3446V68.616C18.93 67.1057 16.6454 67.1033 16.6454 68.616V73.3446C16.6454 75.916 18.7294 78 21.3008 78H71.8558C74.4272 78 76.5112 75.916 76.5112 73.3446V61.7236C76.5112 57.1646 74.2189 53.9374 69.5224 51.9159ZM67.1283 53.4483C66.9695 54.1457 64.7426 60.1407 64.7426 68.5279V75.7155H47.7206V69.9591C47.7206 68.2476 48.2413 66.6028 49.2262 65.2031C50.7014 63.1054 56.7779 54.3379 58.5798 51.6945C66.7814 53.3459 65.7924 53.0037 67.1283 53.4483ZM45.799 63.888C44.9225 62.6419 43.784 61.0065 42.5956 59.2927C42.9485 59.2147 43.2931 59.079 43.6162 58.8856L46.578 57.1093L49.5398 58.8856C49.8629 59.079 50.2075 59.2147 50.5604 59.2927C49.3732 61.006 48.2347 62.6407 47.3576 63.888C47.0654 64.3034 46.8053 64.7354 46.578 65.1811C46.3513 64.7354 46.0912 64.3034 45.799 63.888ZM44.2458 55.8435C42.4368 56.8123 42.5653 57.1021 41.7435 57.0045C41.2323 56.9438 40.7735 56.6594 40.4807 56.2357C39.1149 54.2576 37.8504 52.4223 37.0226 51.2185L39.3107 50.7739C40.0498 53.0186 42.4856 54.8039 44.2458 55.8435ZM56.134 51.2191C55.3039 52.4253 54.0363 54.2659 52.667 56.2488C52.1082 57.0569 51.1067 57.1605 50.7151 56.9254L48.9102 55.8435C50.6711 54.8039 53.1062 53.0186 53.8453 50.7739L56.134 51.2191ZM39.9237 13.4229V14.8559C39.9237 16.3663 42.2082 16.3686 42.2082 14.8559V12.4386C43.2336 12.1143 44.3161 11.9197 45.436 11.8733V17.5225C45.436 19.0329 47.7206 19.0352 47.7206 17.5225V11.8733C48.8405 11.9197 49.923 12.1149 50.9478 12.4386V14.8559C50.9478 16.3663 53.2329 16.3686 53.2329 14.8559V13.4235C60.3752 17.3916 59.6159 24.9755 59.6647 25.1564H33.4919C33.5312 25.0094 32.8183 17.3714 39.9237 13.4229ZM31.9125 27.4409H61.2441C62.3396 27.4409 62.3378 29.0959 61.2441 29.0959H31.9125C30.817 29.0959 30.8188 27.4409 31.9125 27.4409ZM35.908 35.5866C35.8943 34.9653 35.3873 34.469 34.7654 34.469C34.575 34.4214 32.9611 34.7653 32.9611 33.4728V31.381H60.1961V33.4728C60.1961 34.7635 58.5382 34.4321 58.3912 34.469C57.7693 34.469 57.2617 34.9653 57.2486 35.5866C57.1873 38.443 55.9739 41.0959 53.9185 42.8651C49.5553 46.622 43.6019 46.6226 39.2381 42.8651C37.1827 41.0959 35.9687 38.4424 35.908 35.5866ZM51.7821 46.8904V49.4308C51.7821 51.4738 48.3151 53.6369 46.578 54.5111C44.8427 53.6375 41.3834 51.4797 41.3739 49.4391C41.3739 49.4368 41.3739 49.4338 41.3739 49.4308V46.8904C44.6993 48.3245 48.4531 48.3263 51.7821 46.8904ZM26.0283 53.4483C27.3625 53.0049 26.371 53.3465 34.5762 51.6945L35.229 52.6431C35.8949 53.6113 36.8167 54.9497 37.8385 56.4303C39.7023 59.132 42.2731 62.8472 43.9304 65.2025C44.9153 66.6028 45.436 68.247 45.436 69.9591V75.7149H28.414V68.5273C28.414 59.9247 26.2413 54.3861 26.0283 53.4483ZM74.226 73.3446C74.226 74.6514 73.1632 75.7149 71.8558 75.7149H67.0278V68.5279C67.0278 60.806 69.1743 54.6712 69.2594 54.2975C72.671 55.9328 74.2266 58.3001 74.2266 61.7236V73.3446H74.226Z" fill="#4C858B"/>
<path d="M52.8062 66.0843C51.7291 66.0843 50.8525 66.9609 50.8525 68.038V70.3273C50.8525 71.405 51.7291 72.281 52.8062 72.281H59.5254C60.6025 72.281 61.4791 71.405 61.4791 70.3273V68.038C61.4791 66.9609 60.6025 66.0843 59.5254 66.0843H52.8062ZM59.1939 69.9959H53.1377V68.3695H59.1939V69.9959Z" fill="#4C858B"/>
</g>

</g></symbol><symbol id="cart" viewBox="0 0 24 24"><g fill="none">
<g clip-path="url(#clip0_2711_12)">
<path d="M23.6437 8.67485C23.3268 8.27726 22.8513 8.04917 22.3392 8.04917H17.7171L15.2108 2.31012C15.0554 1.95429 14.6409 1.79168 14.285 1.94717C13.9291 2.10256 13.7666 2.51707 13.9221 2.87295L16.1826 8.04921H7.81739L10.0779 2.87295C10.2333 2.51707 10.0709 2.1026 9.71499 1.94717C9.35916 1.79168 8.94464 1.9542 8.78925 2.31012L6.28289 8.04921H1.66083C1.14867 8.04921 0.673222 8.27726 0.3563 8.6749C0.0451904 9.06528 -0.0696064 9.56712 0.0413467 10.0519L2.50964 20.8332C2.682 21.586 3.34796 22.1117 4.12913 22.1117H19.8709C20.6521 22.1117 21.318 21.586 21.4904 20.8332L23.9587 10.0519C24.0696 9.56707 23.9548 9.06523 23.6437 8.67485ZM19.8709 20.7054H4.12913C4.00974 20.7054 3.90516 20.6271 3.88046 20.5192L1.41216 9.73807C1.3928 9.65346 1.42528 9.58981 1.45603 9.55132C1.48453 9.51551 1.54908 9.45546 1.66083 9.45546H5.66878L5.48461 9.8772C5.32922 10.2331 5.49169 10.6475 5.84757 10.803C5.93916 10.843 6.0346 10.8619 6.12858 10.8619C6.39961 10.8619 6.65789 10.7043 6.7733 10.4401L7.20328 9.45556H16.7968L17.2268 10.4401C17.3422 10.7044 17.6005 10.8619 17.8715 10.8619C17.9655 10.8619 18.0609 10.843 18.1525 10.803C18.5084 10.6476 18.6709 10.2331 18.5155 9.8772L18.3313 9.45546H22.3393C22.451 9.45546 22.5156 9.51551 22.5441 9.55132C22.5748 9.58985 22.6073 9.65351 22.5879 9.73803L20.1196 20.5193C20.0949 20.6271 19.9903 20.7054 19.8709 20.7054Z" fill="black"/>
<path d="M7.78125 12.5024C7.39294 12.5024 7.07812 12.8173 7.07812 13.2056V18.3618C7.07812 18.7501 7.39294 19.0649 7.78125 19.0649C8.16956 19.0649 8.48438 18.7501 8.48438 18.3618V13.2056C8.48438 12.8173 8.16961 12.5024 7.78125 12.5024Z" fill="black"/>
<path d="M12 12.5024C11.6117 12.5024 11.2969 12.8173 11.2969 13.2056V18.3618C11.2969 18.7501 11.6117 19.0649 12 19.0649C12.3883 19.0649 12.7031 18.7501 12.7031 18.3618V13.2056C12.7031 12.8173 12.3883 12.5024 12 12.5024Z" fill="black"/>
<path d="M16.2188 12.5024C15.8304 12.5024 15.5156 12.8173 15.5156 13.2056V18.3618C15.5156 18.7501 15.8304 19.0649 16.2188 19.0649C16.6071 19.0649 16.9219 18.7501 16.9219 18.3618V13.2056C16.9218 12.8173 16.6071 12.5024 16.2188 12.5024Z" fill="black"/>
</g>

</g></symbol><symbol id="dots" viewBox="0 0 37 149"><g fill="none">
<path d="M2.50716 95.2047C3.86164 95.2047 4.95966 94.1067 4.95966 92.7522C4.95966 91.3977 3.86164 90.2997 2.50716 90.2997C1.15268 90.2997 0.0546875 91.3977 0.0546875 92.7522C0.0546875 94.1067 1.15268 95.2047 2.50716 95.2047Z" fill="black"/>
<path d="M18.071 95.2047C19.4255 95.2047 20.5235 94.1067 20.5235 92.7522C20.5235 91.3977 19.4255 90.2997 18.071 90.2997C16.7166 90.2997 15.6186 91.3977 15.6186 92.7522C15.6186 94.1067 16.7166 95.2047 18.071 95.2047Z" fill="black"/>
<path d="M33.635 95.2047C34.9894 95.2047 36.0875 94.1067 36.0875 92.7522C36.0875 91.3977 34.9894 90.2997 33.635 90.2997C32.2805 90.2997 31.1825 91.3977 31.1825 92.7522C31.1825 94.1067 32.2805 95.2047 33.635 95.2047Z" fill="black"/>
<path d="M2.50716 76.8581C3.86164 76.8581 4.95966 75.7601 4.95966 74.4056C4.95966 73.0511 3.86164 71.9531 2.50716 71.9531C1.15268 71.9531 0.0546875 73.0511 0.0546875 74.4056C0.0546875 75.7601 1.15268 76.8581 2.50716 76.8581Z" fill="black"/>
<path d="M18.071 76.8581C19.4255 76.8581 20.5235 75.7601 20.5235 74.4056C20.5235 73.0511 19.4255 71.9531 18.071 71.9531C16.7166 71.9531 15.6186 73.0511 15.6186 74.4056C15.6186 75.7601 16.7166 76.8581 18.071 76.8581Z" fill="black"/>
<path d="M33.635 76.8581C34.9894 76.8581 36.0875 75.7601 36.0875 74.4056C36.0875 73.0511 34.9894 71.9531 33.635 71.9531C32.2805 71.9531 31.1825 73.0511 31.1825 74.4056C31.1825 75.7601 32.2805 76.8581 33.635 76.8581Z" fill="black"/>
<path d="M2.50716 60.8225C3.86164 60.8225 4.95966 59.7245 4.95966 58.37C4.95966 57.0155 3.86164 55.9175 2.50716 55.9175C1.15268 55.9175 0.0546875 57.0155 0.0546875 58.37C0.0546875 59.7245 1.15268 60.8225 2.50716 60.8225Z" fill="black"/>
<path d="M18.071 60.8225C19.4255 60.8225 20.5235 59.7245 20.5235 58.37C20.5235 57.0155 19.4255 55.9175 18.071 55.9175C16.7166 55.9175 15.6186 57.0155 15.6186 58.37C15.6186 59.7245 16.7166 60.8225 18.071 60.8225Z" fill="black"/>
<path d="M33.635 60.8225C34.9894 60.8225 36.0875 59.7245 36.0875 58.37C36.0875 57.0155 34.9894 55.9175 33.635 55.9175C32.2805 55.9175 31.1825 57.0155 31.1825 58.37C31.1825 59.7245 32.2805 60.8225 33.635 60.8225Z" fill="black"/>
<path d="M2.50716 148.417C3.86164 148.417 4.95966 147.319 4.95966 145.965C4.95966 144.61 3.86164 143.512 2.50716 143.512C1.15268 143.512 0.0546875 144.61 0.0546875 145.965C0.0546875 147.319 1.15268 148.417 2.50716 148.417Z" fill="black"/>
<path d="M18.071 148.417C19.4255 148.417 20.5235 147.319 20.5235 145.965C20.5235 144.61 19.4255 143.512 18.071 143.512C16.7166 143.512 15.6186 144.61 15.6186 145.965C15.6186 147.319 16.7166 148.417 18.071 148.417Z" fill="black"/>
<path d="M33.635 148.417C34.9894 148.417 36.0875 147.319 36.0875 145.965C36.0875 144.61 34.9894 143.512 33.635 143.512C32.2805 143.512 31.1825 144.61 31.1825 145.965C31.1825 147.319 32.2805 148.417 33.635 148.417Z" fill="black"/>
<path d="M2.50716 130.071C3.86164 130.071 4.95966 128.972 4.95966 127.618C4.95966 126.264 3.86164 125.166 2.50716 125.166C1.15268 125.166 0.0546875 126.264 0.0546875 127.618C0.0546875 128.972 1.15268 130.071 2.50716 130.071Z" fill="black"/>
<path d="M18.071 130.071C19.4255 130.071 20.5235 128.972 20.5235 127.618C20.5235 126.264 19.4255 125.166 18.071 125.166C16.7166 125.166 15.6186 126.264 15.6186 127.618C15.6186 128.972 16.7166 130.071 18.071 130.071Z" fill="black"/>
<path d="M33.635 130.071C34.9894 130.071 36.0875 128.972 36.0875 127.618C36.0875 126.264 34.9894 125.166 33.635 125.166C32.2805 125.166 31.1825 126.264 31.1825 127.618C31.1825 128.972 32.2805 130.071 33.635 130.071Z" fill="black"/>
<path d="M2.50716 114.035C3.86164 114.035 4.95966 112.937 4.95966 111.582C4.95966 110.228 3.86164 109.13 2.50716 109.13C1.15268 109.13 0.0546875 110.228 0.0546875 111.582C0.0546875 112.937 1.15268 114.035 2.50716 114.035Z" fill="black"/>
<path d="M18.071 114.035C19.4255 114.035 20.5235 112.937 20.5235 111.582C20.5235 110.228 19.4255 109.13 18.071 109.13C16.7166 109.13 15.6186 110.228 15.6186 111.582C15.6186 112.937 16.7166 114.035 18.071 114.035Z" fill="black"/>
<path d="M33.635 114.035C34.9894 114.035 36.0875 112.937 36.0875 111.582C36.0875 110.228 34.9894 109.13 33.635 109.13C32.2805 109.13 31.1825 110.228 31.1825 111.582C31.1825 112.937 32.2805 114.035 33.635 114.035Z" fill="black"/>
<path d="M2.50716 42.476C3.86164 42.476 4.95966 41.378 4.95966 40.0235C4.95966 38.6691 3.86164 37.571 2.50716 37.571C1.15268 37.571 0.0546875 38.6691 0.0546875 40.0235C0.0546875 41.378 1.15268 42.476 2.50716 42.476Z" fill="black"/>
<path d="M18.071 42.476C19.4255 42.476 20.5235 41.378 20.5235 40.0235C20.5235 38.6691 19.4255 37.571 18.071 37.571C16.7166 37.571 15.6186 38.6691 15.6186 40.0235C15.6186 41.378 16.7166 42.476 18.071 42.476Z" fill="black"/>
<path d="M33.635 42.476C34.9894 42.476 36.0875 41.378 36.0875 40.0235C36.0875 38.6691 34.9894 37.571 33.635 37.571C32.2805 37.571 31.1825 38.6691 31.1825 40.0235C31.1825 41.378 32.2805 42.476 33.635 42.476Z" fill="black"/>
<path d="M2.50716 24.1294C3.86164 24.1294 4.95966 23.0313 4.95966 21.6769C4.95966 20.3224 3.86164 19.2244 2.50716 19.2244C1.15268 19.2244 0.0546875 20.3224 0.0546875 21.6769C0.0546875 23.0313 1.15268 24.1294 2.50716 24.1294Z" fill="black"/>
<path d="M18.071 24.1294C19.4255 24.1294 20.5235 23.0313 20.5235 21.6769C20.5235 20.3224 19.4255 19.2244 18.071 19.2244C16.7166 19.2244 15.6186 20.3224 15.6186 21.6769C15.6186 23.0313 16.7166 24.1294 18.071 24.1294Z" fill="black"/>
<path d="M33.635 24.1294C34.9894 24.1294 36.0875 23.0313 36.0875 21.6769C36.0875 20.3224 34.9894 19.2244 33.635 19.2244C32.2805 19.2244 31.1825 20.3224 31.1825 21.6769C31.1825 23.0313 32.2805 24.1294 33.635 24.1294Z" fill="black"/>
<path d="M2.50716 5.78292C3.86164 5.78292 4.95966 4.6849 4.95966 3.33042C4.95966 1.97595 3.86164 0.87793 2.50716 0.87793C1.15268 0.87793 0.0546875 1.97595 0.0546875 3.33042C0.0546875 4.6849 1.15268 5.78292 2.50716 5.78292Z" fill="black"/>
<path d="M18.071 5.78292C19.4255 5.78292 20.5235 4.6849 20.5235 3.33042C20.5235 1.97595 19.4255 0.87793 18.071 0.87793C16.7166 0.87793 15.6186 1.97595 15.6186 3.33042C15.6186 4.6849 16.7166 5.78292 18.071 5.78292Z" fill="black"/>
<path d="M33.635 5.78292C34.9894 5.78292 36.0875 4.6849 36.0875 3.33042C36.0875 1.97595 34.9894 0.87793 33.635 0.87793C32.2805 0.87793 31.1825 1.97595 31.1825 3.33042C31.1825 4.6849 32.2805 5.78292 33.635 5.78292Z" fill="black"/>
</g></symbol><symbol id="guarantee" viewBox="0 0 79 79"><g fill="none">
<g clip-path="url(#clip0_1_280)">
<path d="M77.7256 0H6.37095C5.6679 0 5.09676 0.571145 5.09676 1.27419V5.09676H1.27419C0.571146 5.09676 0 5.6679 0 6.37095V57.3385C0 58.0434 0.571146 58.6127 1.27419 58.6127H26.1476C27.3609 60.0791 28.8721 61.2861 30.5806 62.1628V77.7255C30.5806 78.2401 30.8916 78.7067 31.367 78.9027C31.8423 79.1005 32.3898 78.991 32.7556 78.6264L36.9515 74.4306L41.1474 78.6264C41.3906 78.8697 41.7173 78.9997 42.0483 78.9997C42.2125 78.9997 42.3786 78.9692 42.5367 78.9027C43.0114 78.7067 43.3224 78.2401 43.3224 77.7255V62.1628C45.0303 61.2861 46.5409 60.0804 47.7554 58.6127H72.6288C73.3325 58.6127 73.903 58.0434 73.903 57.3385V53.5159H77.7256C78.4292 53.5159 78.9998 52.9467 78.9998 52.2418V1.27419C78.9998 0.571145 78.4292 0 77.7256 0ZM40.7741 74.6496L37.8524 71.7279C37.354 71.2295 36.549 71.2295 36.0506 71.7279L33.1289 74.6496V63.1669C34.3459 63.5122 35.625 63.7095 36.9515 63.7095C38.278 63.7095 39.5571 63.5122 40.7741 63.1669V74.6496ZM36.9515 61.1611C30.6291 61.1611 25.4838 56.017 25.4838 49.6934C25.4838 43.3697 30.6291 38.2257 36.9515 38.2257C43.2739 38.2257 48.4192 43.3697 48.4192 49.6934C48.4192 56.017 43.2739 61.1611 36.9515 61.1611ZM23.0007 50.9676H15.2001C14.6395 47.066 11.5455 43.9738 7.64514 43.4126V20.2968C11.5455 19.7356 14.6395 16.6422 15.2001 12.7419H58.7048C59.2654 16.6422 62.3588 19.7356 66.2591 20.2968V43.4139C62.3588 43.9738 59.2654 47.0672 58.7048 50.9688H50.9041C50.9408 50.547 50.9676 50.1239 50.9676 49.6934C50.9676 41.9655 44.6794 35.6773 36.9515 35.6773C29.2236 35.6773 22.9354 41.9655 22.9354 49.6934C22.9354 50.1239 22.9622 50.547 23.0007 50.9676ZM71.3546 56.0643H49.4209C49.8353 55.2568 50.1725 54.4056 50.4251 53.5159H59.8869C60.5906 53.5159 61.1611 52.9467 61.1611 52.2418C61.1611 48.729 64.0193 45.8708 67.5321 45.8708C68.2357 45.8708 68.8062 45.3015 68.8062 44.5966V19.1128C68.8062 18.4098 68.2357 17.8386 67.5321 17.8386C64.0193 17.8386 61.1611 14.9804 61.1611 11.4677C61.1611 10.7647 60.5906 10.1935 59.8869 10.1935H14.0161C13.313 10.1935 12.7419 10.7647 12.7419 11.4677C12.7419 14.9804 9.8843 17.8386 6.37095 17.8386C5.6679 17.8386 5.09676 18.4098 5.09676 19.1128V44.5966C5.09676 45.3015 5.6679 45.8708 6.37095 45.8708C9.8843 45.8708 12.7419 48.729 12.7419 52.2418C12.7419 52.9467 13.313 53.5159 14.0161 53.5159H23.4786C23.7305 54.4056 24.0684 55.2568 24.4821 56.0643H2.54838V7.64514H71.3546V56.0643ZM76.4514 50.9676H73.903V6.37095C73.903 5.6679 73.3325 5.09676 72.6288 5.09676H7.64514V2.54838H76.4514V50.9676Z" fill="#4C858B"/>
<path d="M36.9517 40.7742C32.0335 40.7742 28.0323 44.7766 28.0323 49.6936H30.5807C30.5807 46.1809 33.439 43.3226 36.9517 43.3226V40.7742Z" fill="#4C858B"/>
<path d="M43.3227 49.6935C43.3227 53.2062 40.4651 56.0645 36.9517 56.0645V58.6129C41.8699 58.6129 45.8711 54.6105 45.8711 49.6935H43.3227Z" fill="#4C858B"/>
<path d="M56.0646 21.6613V16.5645C56.0646 15.8615 55.494 15.2903 54.7904 15.2903H19.1129C18.4099 15.2903 17.8387 15.8615 17.8387 16.5645V21.6613C17.8387 22.3644 18.4099 22.9355 19.1129 22.9355H54.7904C55.494 22.9355 56.0646 22.3644 56.0646 21.6613ZM53.5162 20.3871H20.3871V17.8387H53.5162V20.3871Z" fill="#4C858B"/>
<path d="M10.1936 25.4838H20.3871V28.0322H10.1936V25.4838Z" fill="#4C858B"/>
<path d="M10.1936 30.5806H20.3871V33.129H10.1936V30.5806Z" fill="#4C858B"/>
<path d="M22.9355 30.5806H63.7097V33.129H22.9355V30.5806Z" fill="#4C858B"/>
<path d="M22.9355 25.4838H63.7097V28.0322H22.9355V25.4838Z" fill="#4C858B"/>
</g>

</g></symbol><symbol id="heart-like">

 <g>
  <title>background</title>
  <rect fill="none" id="canvas_background" height="25" width="25" y="-1" x="-1"/>
 </g>
 <g>
  <title>Layer 1</title>
  <path id="svg_1" fill="#E33E54" d="m11.5,21.7204c-0.3275,0 -0.6431,-0.1186 -0.8892,-0.3341c-0.9291,-0.8124 -1.82491,-1.5759 -2.61525,-2.2494l-0.00403,-0.0035c-2.31716,-1.9746 -4.31811,-3.6799 -5.71034,-5.3598c-1.55629,-1.8779 -2.28118,-3.6585 -2.28118,-5.60361c0,-1.88988 0.64803,-3.63341 1.8246,-4.90964c1.1906,-1.29133 2.82428,-2.00254 4.60062,-2.00254c1.32765,0 2.54352,0.41974 3.61378,1.24746c0.5401,0.41781 1.0297,0.92915 1.461,1.52559c0.4315,-0.59644 0.9209,-1.10778 1.4612,-1.52559c1.0702,-0.82772 2.2861,-1.24746 3.6137,-1.24746c1.7762,0 3.41,0.71121 4.6006,2.00254c1.1766,1.27623 1.8245,3.01976 1.8245,4.90964c0,1.94511 -0.7248,3.72571 -2.2811,5.60351c-1.3922,1.68 -3.393,3.3851 -5.7098,5.3595c-0.7917,0.6746 -1.6889,1.4393 -2.6202,2.2537c-0.2458,0.2151 -0.5617,0.3337 -0.8889,0.3337zm-5.07478,-19.11528c-1.39556,0 -2.67758,0.55696 -3.61024,1.5684c-0.94651,1.02671 -1.46785,2.44596 -1.46785,3.99647c0,1.63596 0.60802,3.09911 1.97129,4.74401c1.31765,1.59 3.27754,3.2602 5.54679,5.1941l0.00421,0.0035c0.79333,0.6761 1.69268,1.4426 2.62858,2.261c0.9417,-0.82 1.8424,-1.5877 2.6373,-2.2649c2.2691,-1.9339 4.2288,-3.6037 5.5464,-5.1937c1.3631,-1.6449 1.9711,-3.10805 1.9711,-4.74401c0,-1.55051 -0.5213,-2.96976 -1.4678,-3.99647c-0.9325,-1.01144 -2.2147,-1.5684 -3.6101,-1.5684c-1.0223,0 -1.9609,0.32498 -2.7897,0.96582c-0.7386,0.57135 -1.2531,1.29361 -1.5547,1.79898c-0.1551,0.25988 -0.4282,0.415 -0.7305,0.415c-0.3024,0 -0.5754,-0.15512 -0.7305,-0.415c-0.3015,-0.50537 -0.81599,-1.22763 -1.55474,-1.79898c-0.82877,-0.64084 -1.76739,-0.96582 -2.78954,-0.96582z"/>
  <path d="m9.651748,12.988324c0,-0.194552 0.235735,-0.333487 0.778211,-0.778211c0.63833,-0.523304 1.32771,-0.991806 1.55642,-1.361868c0.102283,-0.165496 0.0447,0.005204 0,0.194553c-0.199901,0.84679 -0.778211,1.556419 -0.778211,1.750973c0,0.194552 0.22578,0.462747 1.361868,0.194552c1.270185,-0.29985 1.983614,-1.488105 2.723736,-1.945525c0.165496,-0.102283 0.254622,0.597626 0,1.556419c-0.15791,0.59462 -0.179744,0.852663 0,0.778211c0.50839,-0.210582 0.583657,-0.778211 1.361868,-1.55642l0.194551,-0.194552l0,-0.583657l0,0" id="svg_8" stroke-width="1.5" stroke="#e33e54" fill="none"/>
  <path d="m6.344355,8.319063c-0.389105,0 -0.77821,0 -1.167315,0c-0.194553,0 -0.286354,-0.023021 -0.194553,-0.194552c0.330994,-0.618467 1.468708,-1.158593 2.140078,-1.361868c0.186204,-0.056378 0.113062,0.081491 -0.194552,0.389105c-0.307615,0.307615 -0.77821,0.583658 -1.167315,0.972763c-0.194552,0.194552 0.634123,0.460467 2.33463,0c1.849514,-0.500815 2.780719,-1.304884 2.918288,-1.167315c0.137569,0.137569 0.059815,0.425293 -0.194552,0.77821c-0.482629,0.669613 -0.965226,1.066254 -0.389105,0.972762c1.214569,-0.197098 2.413232,-0.858279 3.307393,-1.55642c0.433732,-0.338648 0.526674,-0.526675 0.389105,-0.389105c-0.275139,0.275139 -0.583657,1.945525 -0.778211,2.723736c0,0 0.63717,0.113535 1.55642,-0.389106c1.468423,-0.802924 2.63778,-2.241105 3.307393,-2.723735c0.352917,-0.254368 0.389105,0.389105 0.389105,0.77821l0,0.389105l-0.194551,0l0,0.194553" id="svg_9" stroke-width="1.5" stroke="#e33e54" fill="none"/>
  <path d="m9.457195,15.322954c-0.194552,0 -0.43031,-0.269375 -0.583657,-0.389105c-0.632268,-0.49366 -0.857914,-1.073954 -1.55642,-1.750973c-0.894526,-0.867008 -1.347874,-1.675301 -1.750973,-2.140078c-0.285034,-0.328648 -0.583658,-0.778212 -0.583658,-0.583658c0,0.389105 0.583658,0 1.55642,0c0.77821,0 1.761994,0.178509 2.33463,0.583658c0.794104,0.561841 1.174225,1.459969 1.750973,2.33463c0.302922,0.459394 0.612461,0.822638 0.389105,1.361868c-0.105291,0.254195 -0.389105,0.194552 -0.583657,0.194552c-0.194552,0 -0.670827,0.306847 -1.167315,0c-0.740122,-0.45742 -1.069304,-0.954823 -1.167315,-1.750973c-0.071314,-0.579286 0.005204,-1.317168 0.194553,-1.361868c0.423395,-0.09995 0.868572,-0.298741 1.556419,0.389105c0.687848,0.687847 1.263319,1.338241 1.361868,1.945525c0.031164,0.19204 -0.01481,0.463558 -0.194552,0.389106c-0.50839,-0.210583 -0.389105,-0.778211 -0.389105,-1.167315l0,0l0.389105,0l0,-0.194552" id="svg_10" stroke-width="1.5" stroke="#e33e54" fill="none"/>
  <path d="m9.651748,13.377429c0,0 0.137569,-0.251535 0,-0.389105c-0.137569,-0.137569 -0.194552,-0.194552 -0.194552,-0.389106c0,0 0.097088,0.76913 0.194552,2.334631c0.024178,0.388353 0.254368,0.547469 0,0.194552c-0.160876,-0.223204 -0.574935,-0.301393 -0.77821,-0.972763c-0.225513,-0.744819 -0.332122,-1.029745 -0.194552,-1.167315c0.137569,-0.137569 0.194552,0.389105 0.77821,0.972762l0.194552,0.194552l0,0" id="svg_11" stroke-width="1.5" stroke="#e33e54" fill="none"/>
  <path d="m4.787935,10.848246c-0.194552,0 -0.389105,0 -0.583658,0c0,0 -0.194552,0 -0.583657,0c-0.194553,0 -0.199757,0.044699 -0.389105,0c-0.423395,-0.09995 -0.583658,-0.389105 -0.583658,-0.389105c-0.194553,0 -0.194553,-0.194552 -0.194553,-0.194552c-0.194553,0 -0.194553,-0.194552 -0.194553,-0.389105c0,-0.194552 0,-0.389105 0,-0.389105c0,-0.194552 -0.056983,-0.251536 -0.194552,-0.389106c-0.137569,-0.137569 -0.194552,-0.194552 -0.194552,-0.389105c0,0 -0.194553,0 -0.194553,-0.194552c0,-0.194552 0,-0.389105 0,-0.583657c0,0 0,-0.194552 0,-0.389105c0,-0.194552 0.194553,-0.194552 0.194553,-0.389105c0,0 0,-0.194552 0,-0.389105c0,0 0.056983,-0.056983 0.194552,-0.194552c0.137569,-0.137569 0.194552,-0.194552 0.194552,-0.194552c0.194553,0 0.389105,0 0.389105,-0.194552c0,-0.194553 -0.074452,-0.209363 0,-0.389105c0.105291,-0.254195 0.251535,-0.056983 0.389105,-0.194552c0.137569,-0.137569 0.056983,-0.251535 0.194553,-0.389105c0.137569,-0.137569 0.194552,-0.194552 0.194552,-0.194552c0.194553,0 0.194553,-0.194552 0.389105,-0.194552c0,0 0.389105,0.194552 0.389105,0c0,-0.194552 -0.389105,0 -0.583657,0c-0.194553,0 -0.194553,0 -0.389105,0c-0.194553,0 -0.389105,0 -0.583658,0c0,0 0,0.194552 0,0.194552c0,0.194552 -0.056983,0.251536 -0.194553,0.389105c-0.137569,0.137569 -0.179743,0.314653 0,0.389105c0.254195,0.105291 0.194553,-0.194552 0.194553,-0.194552c0.194552,-0.194552 0.251535,-0.251536 0.389105,-0.389105c0.137569,-0.137569 0.056983,-0.251535 0.194553,-0.389105c0.137569,-0.137569 0.283814,0.059643 0.389105,-0.194552c0.074452,-0.179743 0.194552,-0.194552 0.389105,-0.194552c0.194552,0 0.194552,-0.194553 0.194552,-0.194553c0.194553,-0.194552 0.389105,-0.194552 0.389105,-0.194552c0.194552,0 0.389105,0 0.389105,0c0,-0.194552 0.056983,-0.251535 0.194553,-0.389105c0.137569,-0.137569 0.583657,0.194552 0.583657,0c0,-0.194552 -0.389105,0 -0.583657,0c-0.194553,0 -0.194553,0 -0.389105,0c-0.194552,0 -0.389105,0 -0.583658,0c-0.194552,0 -0.583657,0 -0.583657,0.194552c0,0.194552 0.389105,0 0.583657,0c0,0 0.194553,0 0.389105,0c0.194552,0 0.389105,0 0.389105,0c0.194553,-0.194552 0.389105,-0.194552 0.583658,-0.194552c0.194552,0 0.194552,0 0.389105,0c0.194553,0 0.194553,-0.194553 0.389105,-0.194553c0.194552,0 0.194552,0.194552 0.194552,0c0,-0.194552 -0.389105,0 -0.583658,0c-0.194552,0 -0.194552,0 -0.389105,0c-0.194552,0 -0.502862,0.036723 -0.389105,0.194553c0.359731,0.4991 0.549367,0.289155 0.972763,0.389105c0.189348,0.044699 0.251535,-0.137569 0.389105,0c0.137569,0.137569 0,0.194552 0.194553,0.194552c0.194552,0 0.446088,0.137569 0.583657,0c0.137569,-0.137569 0,-0.194552 0,-0.389105c0,-0.194552 -0.056983,-0.251536 -0.194552,-0.389105c-0.137569,-0.137569 -0.194552,-0.194552 -0.194552,-0.194552c-0.194552,0 -0.389105,0 -0.194552,0c0.194552,0 0.389105,0 0.583657,0c0,0 0.209362,0.1201 0.389105,0.194552c0.254196,0.105291 0.389105,0.194553 0.389105,0.194553c0.194553,0.194552 0.329463,0.283814 0.583658,0.389105c0.179743,0.074452 0.194552,0.194552 0.194552,0.194552c0,0.194553 0.194552,0.194553 0.194552,0.389105c0,0.194552 0.13491,0.283814 0.389105,0.389105c0.179743,0.074452 0.13491,0.283814 0.389105,0.389105c0.179744,0.074452 0.251536,0.056983 0.389106,0.194552c0.137569,0.137569 0.194552,0 0.194552,0c0,0.194552 0.056983,0.251535 0.194552,0.389105c0.137569,0.137569 0.251535,0.056983 0.389105,0.194553c0.137569,0.137569 0.269004,0.179743 0.194552,0c-0.105291,-0.254195 -0.314652,-0.209363 -0.389105,-0.389105c-0.105291,-0.254195 -0.389105,-0.194552 -0.972763,-0.77821c-0.194552,-0.194552 -0.056983,-0.446088 -0.194552,-0.583657c-0.137569,-0.137569 -0.446088,-0.332122 -0.583657,-0.194553c-0.412708,0.412708 0.164831,1.175355 0.389105,1.945526c0.17201,0.590693 0.389105,0.77821 0.389105,0.972763c0,0 -0.056983,0.332122 -0.194552,0.194552c-0.137569,-0.137569 -0.389105,-0.972763 -0.583657,-1.361868c-0.194552,-0.389105 -0.478366,-0.718567 -0.583657,-0.972763c-0.074452,-0.179743 0,0.194552 0,0.972763c0,0.583658 0,1.167315 0,1.167315c0,0.194552 -0.194552,0.194552 -0.389106,0c0,0 -0.080914,-0.342622 -0.389105,-0.972763c-0.270302,-0.55267 -0.13491,-1.078054 -0.389105,-0.972763c-0.359487,0.148904 0,0.972763 0,1.750973c0,0.194552 0.044699,0.189348 0,0c-0.09995,-0.423395 -0.329289,-1.008951 -0.583657,-1.361868c-0.160877,-0.223204 -0.194553,0 -0.194553,0c0,0.389105 0,0.583658 0,0.972763c0,0.194552 -0.13491,-0.089262 -0.389105,-0.194552c-0.179743,-0.074452 -0.389105,-0.583658 -0.389105,-0.77821c0,0 -0.194552,0 -0.389105,0c-0.194552,0 -0.34822,0.209813 -0.583658,0.77821c-0.332959,0.803835 -0.835193,1.499437 -0.972763,1.361868c-0.13757,-0.13757 -0.096542,-0.371165 -0.194552,-1.167315c-0.047542,-0.386189 0,-0.77821 0,-0.972763c0,0 0,0 0,0.194552c0,0.389105 -0.094603,0.549367 -0.194553,0.972763c-0.089398,0.378696 0,0.77821 0,1.167315c0,0 0,0.194552 0,0.389105c0,0.194552 0,0 0,-0.194552c0,-0.389105 0,-0.972763 0,-1.55642c0,-0.389105 -0.056983,-0.526674 -0.194552,-0.389105c-0.137569,0.137569 -0.194553,0.389105 -0.194553,0.972763c0,0.389105 0,0.583658 0.194553,0.77821c0,0 0,0.194552 0,0.389105c0,0.389105 0.254195,0.299844 0,0.194552c-0.179743,-0.074452 -0.538959,-0.588862 -0.583658,-0.77821c-0.09995,-0.423396 -0.509206,-0.598467 -0.583658,-0.77821c-0.105291,-0.254195 -0.251536,-0.526675 -0.389105,-0.389105c-0.137569,0.137569 0.056983,0.446088 0.194553,0.583658c0.137569,0.137569 -0.044699,0.199757 0,0.389105c0.09995,0.423395 0.602702,0.938605 0.972763,1.167315c0.165496,0.102283 0.389105,0 0.583658,0c0,0 0.194553,0 0.389105,0c0.194552,0 0.389105,0 0.389105,0c0.194553,0 0.389105,0 0.389105,0.194552c0,0.194552 -0.194552,0.389106 -0.389105,0.583658c-0.194552,0.194552 -0.503071,-0.080586 -0.77821,0.194552c-0.137569,0.137569 0,0.194552 0,0.194552c0.389105,0 0.77821,0 0.972763,0c0.389105,0 0.77821,0 0.77821,-0.194552l0.194552,0l0.194552,0" id="svg_13" stroke-width="1.5" stroke="#e33e54" fill="none"/>
  <path stroke="#e33e54" d="m10.040854,10.118385c0,-0.215439 -0.466928,-0.215439 -0.466928,-0.646316c0,-0.215439 0.149586,-0.867319 0,-1.292633c-0.236517,-0.67248 -0.466926,-0.646316 -0.466926,-0.430877c0,0.646316 -0.232322,1.492085 -0.466926,2.585265c-0.138029,0.643172 -0.466926,1.292633 -0.933851,1.292633c-0.466926,0 -0.466926,-0.215439 -0.466926,-0.430877l-0.933851,-0.646317l-0.933854,-0.430877" id="svg_14" stroke-width="1.5" fill="none"/>
  <path d="m7.122565,4.622565c-0.194552,0 -0.389105,0 -0.583658,0c-0.194552,0 -0.389105,0 -0.583658,0c-0.194552,0 -0.389105,0 -0.583657,0c-0.194552,0 -0.389105,0 -0.389105,0c-0.194552,0 -0.389105,0 -0.583657,0l-0.194553,0l-0.194552,0" id="svg_15" fill-opacity="null" stroke-opacity="null" stroke-width="1.5" stroke="#e33e54" fill="none"/>
  <path d="m12.959141,16.879374c0,-0.194551 0.058112,-0.18454 0.389105,-0.389105c0.370061,-0.22871 0.389106,-0.583657 0.583658,-0.77821c0.194552,-0.194552 0.251535,-0.251535 0.389105,-0.389105c0.137569,-0.137569 0.194552,-0.389105 0.194552,-0.389105c0.194552,0 0.314652,-0.01481 0.389105,-0.194552c0.105291,-0.254195 0.425294,-0.134737 0.778211,-0.389106c0.223204,-0.160876 0.614645,-0.118804 1.167315,-0.389105c0.63014,-0.308191 0.77821,-0.583657 0.972763,-0.583657c0,0 0.389105,-0.194552 0.389105,-0.194552c0,-0.194552 0,-0.389105 0,-0.583658l0,0" id="svg_16" fill-opacity="null" stroke-opacity="null" stroke-width="1.5" stroke="#e33e54" fill="none"/>
  <path d="m4.009725,4.23346c0,-0.194552 0.194552,-0.194552 0.194552,-0.194552c0,0 0.056983,-0.056983 0.194553,-0.194552c0.137569,-0.137569 0.251535,-0.056983 0.389105,-0.194552c0.137569,-0.137569 0.194552,-0.194553 0.194552,-0.194553c0,-0.194552 0.194553,-0.194552 0.194553,-0.194552c0.194552,0 0.251535,-0.056983 0.389105,-0.194553c0.137569,-0.137569 0.194552,-0.194552 0.194552,-0.194552c0,-0.194553 0.194552,-0.194553 0.389105,-0.194553c0.194552,0 0.389105,0 0.389105,0c0.194553,0 0.389105,0 0.583658,0c0.194552,0 0.194552,0 0.389105,0c0.194552,0 0.137569,-0.056983 0,-0.194552c-0.137569,-0.137569 -0.194552,0 -0.389105,0c-0.194552,0 -0.389105,0 -0.583658,0c0,0 -0.194552,0 -0.389105,0c-0.194553,0 -0.389105,0 -0.389105,0c-0.194552,0 -0.389105,0 -0.194552,0c0.194552,0 0.194552,0 0.389105,0c0.194553,0 0.389105,0 0.583658,0c0,0 0.194553,0 0.389105,0c0.194552,0 0.389105,0 0.389105,0c0,0 0.194552,0 0.389105,0.194552c0.194553,0.194553 0.251535,0.251536 0.389105,0.389105c0.13757,0.13757 0.389106,0.194553 0.389106,0.194553c0.194552,0 0.389105,0 0.389105,0.194552c0,0.194553 0.056983,0.056983 0.194552,0.194553c0.137569,0.137569 0.194552,0.194552 0.583657,0.389105c0,0 0.056983,-0.137569 0.194552,0c0.137569,0.137569 0.056984,0.251535 0.194553,0.389105c0.275139,0.275139 0.389105,0.194552 0.389105,0.194552c0,-0.194552 0.059643,-0.478367 -0.194552,-0.583658c-0.179743,-0.074452 -0.389106,-0.194552 -0.583658,-0.389105c-0.194552,-0.194553 -0.389105,-0.194553 -0.583657,-0.194553c-0.194552,0 -0.194552,-0.194552 -0.389105,-0.194552c-0.194552,0 -0.478367,0.059643 -0.583658,-0.194553c-0.074452,-0.179743 -0.194552,-0.389105 -0.583657,-0.389105c-0.194552,0 -0.194552,-0.194552 -0.194552,-0.194552c-0.194552,0 -0.389105,0 -0.583657,0c-0.194553,0 -0.194553,0 -0.389105,0c-0.194552,0 -0.446088,0.137569 -0.583658,0c-0.137569,-0.137569 0,-0.194553 -0.194552,-0.194553c-0.194552,0 -0.389105,0 -0.583658,0l0,0l-0.194552,0l-0.194552,0" id="svg_17" fill-opacity="null" stroke-opacity="null" stroke-width="1.5" stroke="#e33e54" fill="none"/>
  <path d="m15.682877,4.817118c-0.194552,0 -0.217094,0.187516 -0.389105,0.77821c-0.224275,0.770171 -0.194553,1.167315 -0.194553,1.361868c0,0.194552 0,0.389105 0,0.583657c0,0.194553 0,0.194553 0.194553,0.194553c0.389105,0 0.408149,-0.354948 0.77821,-0.583658c0.165497,-0.102283 0.478367,-0.329462 0.583658,-0.583658c0.074451,-0.179743 0.194551,-0.389105 0.194551,-0.583658c0,-0.194552 0,-0.389105 0,-0.389105c0,-0.194552 0,-0.389105 0,-0.583658c0,-0.194552 -0.194551,-0.194552 -0.194551,-0.194552c0,0.194552 -0.194553,0.194552 -0.389105,0.194552c-0.194553,0 -0.314654,0.01481 -0.389106,0.194552c-0.105291,0.254195 -0.583657,0.194553 -0.778211,0.389105c0,0 0.059643,0.089262 -0.194552,0.194552c-0.359486,0.148904 -0.583657,0.389105 -0.583657,0.389105c-0.194552,0.194552 -0.389105,0.194552 -0.389105,0.194552c-0.194552,0 -0.251535,0.056983 -0.389105,0.194552c-0.13757,0.13757 -0.389106,0 -0.583658,0c-0.194552,0 -0.13491,0.089262 -0.389105,0.194552c-0.179743,0.074452 -0.389105,0 -0.194552,0c0.194552,0 0.213596,-0.160395 0.583657,-0.389105c0.165496,-0.102282 0.251535,-0.056983 0.389105,-0.194552c0.13757,-0.13757 0.194553,-0.194553 0.389106,-0.194553c0.194552,0 0.389105,0 0.583657,-0.194552c0,0 0.194552,0 0.583657,0l0.194552,0l0,0" id="svg_18" fill-opacity="null" stroke-opacity="null" stroke-width="1.5" stroke="#e33e54" fill="none"/>
  <path d="m5.17704,8.513616c0,0.194552 0.389105,0.194552 0.583657,0.194552c0.583658,0 0.77821,0 0.972763,0c0.194552,0 0.389105,0 0.583657,0c0,0 0.194552,0 0.389105,0c0.194553,0 0.389105,0 0.389105,0c0.194553,0 0.478367,-0.059643 0.583658,0.194552c0.148905,0.359487 0,0.583658 0,0.583658c-0.194552,0 -0.389105,0 -0.583658,0c0,0 -0.194552,0 -0.389105,0c-0.389105,0 -0.389105,0 -0.389105,0c-0.194552,0 -0.389105,0 -0.583657,0c-0.194553,0 -0.194553,0 -0.389105,0c-0.194552,0 -0.403915,-0.1201 -0.583658,-0.194552c-0.254196,-0.105291 -0.524015,-0.283814 -0.77821,-0.389106c-0.179743,-0.074451 -0.378696,-0.089397 0,0c0.423395,0.09995 0.77821,0.389106 0.972763,0.389106c0.194553,0 0.389105,0 0.583658,0c0,0 0.056983,0.056983 0.194553,0.194552c0.137569,0.137569 0.389105,0 0.583657,0c0,0 0.194552,0 0.389105,0l0.194553,0l0.194552,0l0,0" id="svg_19" fill-opacity="null" stroke-opacity="null" stroke-width="1.5" stroke="#e33e54" fill="none"/>
  <path d="m11.208168,18.04669c0,0.194551 0,0.389105 0,0.583656c0,0.194553 0,0.194553 0,0.389107c0,0.194551 0.056982,0.251535 0.194552,0.389105c0.137569,0.137569 0.194552,0.194551 0.194552,0.194551c0.194553,0 0.194554,0.389105 0.389106,0.389105c0.194551,0 0.13757,-0.251535 0,-0.389105c-0.137569,-0.137569 -0.283814,-0.134909 -0.389106,-0.389105c-0.074451,-0.179743 -0.194552,-0.389105 -0.194552,-0.389105c0,-0.194553 -0.194552,-0.194553 -0.194552,-0.194553c-0.194552,-0.194551 -0.446088,-0.251535 -0.583657,-0.389105c-0.137568,-0.137569 -0.056982,-0.251535 -0.194552,-0.389105c-0.137569,-0.137569 -0.251535,-0.056982 -0.389105,-0.194551c-0.13757,-0.137569 -0.056985,-0.251535 -0.194553,-0.389105c-0.137569,-0.137569 -0.194552,0 -0.194552,0c0,0 0.094603,0.160261 0.194552,0.583656c0.0447,0.189348 0.056985,0.251535 0.194553,0.389105c0.137569,0.137569 0.120101,0.209362 0.194552,0.389105c0.105291,0.254196 0.194552,0.583658 0.389105,0.972763c0.194552,0.389105 0.374295,0.65811 0.194552,0.583658c-0.254195,-0.105291 -0.314653,-0.598467 -0.389105,-0.77821c-0.105291,-0.254196 -0.13491,-0.478367 -0.389105,-0.583658c-0.179744,-0.074453 -0.389106,-0.194553 -0.389106,-0.389105c0,-0.194553 -0.01481,-0.314653 -0.194552,-0.389105c-0.254195,-0.105291 -0.251536,-0.251535 -0.389105,-0.389105c-0.137569,-0.137569 -0.056984,-0.251535 -0.194552,-0.389105c-0.137569,-0.137569 -0.056982,-0.056984 -0.194552,-0.194553c-0.137569,-0.137569 -0.478367,0.059643 -0.583658,-0.194553c-0.074451,-0.179743 0,-0.389105 0,-0.389105c-0.194552,0 -0.209362,-0.1201 -0.389105,-0.194551c-0.254196,-0.105291 -0.389105,-0.194553 -0.389105,-0.389106c0,-0.194552 0,-0.194552 0,-0.194552c-0.194552,-0.194552 -0.251535,-0.251535 -0.389105,-0.389105c-0.137569,-0.137569 -0.194552,-0.194552 -0.389105,-0.389105c0,0 -0.056983,-0.056983 -0.194552,-0.194552c-0.137569,-0.137569 -0.446088,0.137569 -0.583658,0c-0.137569,-0.137569 0.228229,-0.028652 0.389105,0.194552c0.254368,0.352917 0.389105,0.583657 0.389105,0.77821c0,0 -0.056983,-0.056983 -0.194552,-0.194552c-0.137569,-0.137569 0.232314,-0.021683 0.77821,0.972762c0.209342,0.381351 0.77821,0.972765 0.77821,0.778212c0,-0.194553 -0.344406,-0.005205 -0.389105,-0.194553c-0.09995,-0.423395 -0.194552,-0.583658 -0.194552,-0.583658c0,-0.194551 -0.478366,-0.329462 -0.583657,-0.583657c-0.074452,-0.179743 0.010012,-0.252665 -0.194553,-0.583657c-0.22871,-0.370061 -0.555006,-0.422781 -0.77821,-0.583657c-0.352917,-0.254368 -0.549367,-0.483708 -0.972763,-0.583658c-0.189348,-0.044699 -0.251535,-0.056983 -0.389105,-0.194552c-0.13757,-0.137569 -0.194553,-0.194552 -0.194553,-0.194552c-0.194552,0 -0.056983,-0.251535 -0.194552,-0.389105c-0.137569,-0.137569 -0.314653,-0.209362 -0.389105,-0.389105c-0.105291,-0.254195 -0.194553,-0.389106 -0.194553,-0.389106c0,0 -0.194552,0 -0.194552,-0.194552c0,-0.194552 -0.056983,-0.251535 -0.194553,-0.389105c-0.137569,-0.137569 -0.251535,-0.056983 -0.389105,-0.194552c-0.137569,-0.137569 0,-0.389105 0,-0.583657c0,0 0.251535,-0.137569 0.389105,0c0.137569,0.137569 0.389105,0.389105 0.389105,0.389105c0.194553,0.194552 0.446088,0.056983 0.583658,0.194552c0.137569,0.137569 0.09227,0.223609 0.194552,0.389105c0.22871,0.370061 0.583658,0.194552 0.77821,0.389105c0,0 0.354948,-0.175508 0.583658,0.194553c0.102282,0.165496 0.194552,0.194552 0.194552,0.194552c0,0.194552 0.688949,0.13491 0.583658,0.389105c-0.074452,0.179743 -0.194552,-0.194552 -0.389105,-0.389105c-0.583658,-0.583657 -0.77821,-0.778211 -0.972763,-1.167315c0,0 -0.283814,0.059643 -0.389105,-0.194552c-0.074452,-0.179743 0.134737,-0.158364 0.389105,0.194552c0.48263,0.669613 1.092864,1.376678 1.167315,1.55642c0.105291,0.254195 0.194552,0.389105 0.194552,0.194552c0,-0.194552 0,-0.389104 -0.389105,-0.77821c-0.194553,-0.194553 -0.169324,-0.022313 0,0.194552c0.69814,0.89416 1.256577,1.885882 1.361868,2.140078c0.074452,0.179743 0.044699,-0.005204 0,-0.194552c-0.1999,-0.84679 -0.867472,-1.302225 -0.972763,-1.55642c-0.074452,-0.179743 -0.023802,0.012841 0.194552,0.389105c0.704173,1.213416 1.451129,1.885882 1.55642,2.140078c0.074451,0.179744 0.089262,0.329463 0.194553,0.583657c0.074452,0.179743 0.074451,-0.014809 0,-0.194551c-0.105291,-0.254196 -0.483708,-0.549368 -0.583658,-0.972763c-0.044699,-0.189348 0.295752,0.452075 0.583658,0.77821c0.464234,0.525875 1.151285,1.048031 1.361867,1.556421c0.074451,0.179743 0,-0.194553 0,-0.389105c0,-1.167316 0.389105,-2.334631 -0.194552,-2.334631c-0.194552,0 -0.028805,0.822639 0.194552,1.361868c0.315874,0.762585 0.23898,1.527617 0.778211,1.750973c0.254196,0.105291 0.291353,-0.569221 0.389105,-1.556421c0.038342,-0.387211 0.039231,-0.895369 0.194552,-0.77821c1.130753,0.852928 0.485646,1.927586 0.583657,2.723736c0.023771,0.193094 0,-0.194553 0,-0.583658c0,-0.77821 0,-1.361868 0,-1.750973c0,-0.194552 0.022542,-0.007036 0.194553,0.583658c0.224275,0.77017 0.194552,1.361868 0.194552,1.945524c0,0.194553 0,0.194553 0,0.194553c0.194552,0 0.389105,0 0.583657,0c0.194552,0 0.389105,0 0.77821,-0.389105c0.194553,-0.194553 0.209363,-0.314653 0.389106,-0.389105c0.254195,-0.105291 0.446088,-0.251535 0.583657,-0.389105c0.13757,-0.137569 0.056984,-0.251535 0.194552,-0.389105c0.137569,-0.137569 0.389105,0 0.194552,0c-0.194552,0 -0.391617,-0.031164 -0.583657,0c-0.607285,0.098549 -0.64064,0.251535 -0.778211,0.389105c-0.137568,0.137569 -0.194552,0.194551 0,0.194551c0.194553,0 0.254866,-0.06566 0.778211,-0.389105c0.234046,-0.144648 0.389105,-0.194551 0.583657,-0.389105c0.194552,-0.194553 0.403914,-0.314651 0.583658,-0.389105c0.254195,-0.105291 0.470595,-0.276043 0.77821,-0.583658c0.307615,-0.307614 0.613277,-0.2402 0.972763,-0.389105c0.254194,-0.105291 0.478365,-0.329463 0.583656,-0.583657c0.074451,-0.179743 0.194553,-0.194552 0.389107,-0.194552c0,0 0.194551,0 0.194551,0c0,-0.194552 0.092272,-0.223609 0.194553,-0.389105c0.22871,-0.370061 0.583656,-0.194553 0.583656,-0.389106c0,0 -0.137569,-0.056983 0,-0.194552c0.137569,-0.13757 0,0 0,0c-0.194551,0 -0.549366,0.094603 -0.972761,0.194552c-0.378698,0.089398 -0.594067,0.105154 -0.972763,0.194552c-0.423395,0.099951 -0.39431,0.344406 -0.583658,0.389106c-0.423395,0.09995 -0.583657,0.389105 -0.77821,0.583657c-0.194552,0.194552 -0.389105,0.194552 -0.583658,0.389105c0,0 0.059643,0.089261 -0.194552,0.194552c-0.179743,0.074452 -0.446087,0.251536 -0.583657,0.389106c-0.137569,0.137569 -0.057303,-0.067352 0.389105,-0.389106c0.705833,-0.508737 1.167315,-0.972762 1.750973,-1.55642c0.389105,-0.389105 0.389105,-0.778209 0.583658,-0.972762c0.194551,-0.194552 0.360048,-0.481375 0.194551,-0.583657c-0.37006,-0.22871 -0.225922,0.738572 -0.972761,1.361867c-0.667994,0.557493 -1.50715,0.850457 -2.334631,1.361868c-0.740122,0.45742 -1.327578,0.67826 -1.750973,0.778211c-0.189348,0.044699 -0.026605,-0.028563 0.389105,-0.389106c0.734877,-0.637356 1.55642,-1.361867 1.750973,-1.750973c0.194552,-0.389105 0.194552,-0.77821 0.194552,-0.77821c-0.194552,0 -0.972762,0.77821 -1.750973,1.55642c-0.77821,0.77821 -1.418851,1.110331 -1.55642,0.972762c-0.137569,-0.137569 0.121306,-0.436989 0.778211,-1.361867c0.879889,-1.238825 1.55642,-1.556419 1.55642,-1.750973c0,-0.194553 -0.452076,0.295752 -0.778211,0.583657c-1.051752,0.928469 -1.499117,1.818325 -1.945525,2.140078c-0.352917,0.254368 -0.234459,-0.042843 0.389105,-0.583657c0.734878,-0.637357 1.55642,-1.361868 1.945525,-1.750973c0.389106,-0.389105 0.307614,-0.113062 0,0.194552c-0.615229,0.615229 -1.850923,0.549366 -1.750973,0.972762c0.044699,0.189348 0.586309,0.064187 1.361868,0c1.179385,-0.097609 1.945525,-0.583657 2.33463,-0.77821c0,0 0.32929,0.230741 0.583658,0.583657c0.160876,0.223204 0.194552,0.778211 0.194552,0.972763c0,0.194552 0.01481,0.269005 0.194552,0.194552c0.50839,-0.210582 0.641438,-0.703081 1.167315,-1.167315c0.326134,-0.287906 0.418724,-0.434752 0.778212,-0.583657c0.254194,-0.105291 0.134909,-0.283813 0.389105,-0.389105c0.179743,-0.074451 0.360453,-0.033676 0.583656,-0.194552c0.352917,-0.254369 0.778212,-0.389106 0.972763,-0.389106c0,0 0.22361,-0.092271 0.389105,-0.194552c0.370062,-0.22871 0.194553,-0.583657 0.389105,-0.583657c0,0 0.194553,-0.194552 0.194553,-0.389105c0,-0.194552 0,-0.389105 0,-0.389105c0,-0.194553 0,-0.389106 -0.194553,-0.389106c-0.194551,0 -0.235733,-0.055619 -0.77821,0.389106c-0.212776,0.174435 -0.194551,0.583657 -0.389105,0.77821c0,0 0.175508,0.354947 -0.194553,0.583657c-0.165495,0.102282 -0.134737,0.230741 -0.389105,0.583658c-0.160875,0.223204 -0.194551,0.389105 -0.194551,0.389105c0,0 -0.055618,-0.235735 0.389105,-0.778211c0.523306,-0.63833 0.718395,-0.814398 0.972763,-1.167315c0.321753,-0.446408 0.389105,-0.583658 0.389105,-0.972763c0,-0.194552 0,-0.389105 0,-0.583657c0,-0.194552 0.194551,-0.389105 0.194551,-0.389105c0,-0.194552 0.194553,-0.194552 0.194553,-0.389106c0,-0.194552 0,0.194553 0,1.167315c0,0.583657 -0.283813,0.718569 -0.389105,0.972763c-0.074451,0.179743 0,0.389105 0,0.194552c0,-0.389105 -0.089397,-0.399514 0,-0.778211c0.099949,-0.423394 0.194551,-0.583657 0.194551,-1.167315c0,-0.194552 0.275139,-0.503072 0,-0.778211c-0.137569,-0.137568 -0.194551,0 -0.194551,-0.194552c0,-0.194552 0,-0.389105 0,-0.583657c0,0 0,-0.194552 0,-0.389105c0,-0.194552 0,-0.389105 0,-0.389105c0,-0.194552 0,-0.389105 0,-0.583658c0,-0.194552 0,-0.194552 0,-0.389105c0,-0.194553 0,0.194552 0,0.389105c0,0.194552 0.194551,0.583657 0.389105,0.972763c0.194551,0.389105 0.389105,0.972763 0.389105,1.167315c0,0 0,0 0,-0.583657c0,-0.389105 0,-0.77821 0,-0.972763c0,-0.194552 0,-0.389105 0,-0.389105c0,-0.194552 -0.194553,-0.389105 -0.194553,-0.389105c-0.194551,-0.194552 -0.194551,-0.389105 -0.389105,-0.583658c-0.194551,-0.194552 -0.1201,-0.209362 -0.194551,-0.389105c-0.105291,-0.254196 -0.134911,-0.478367 -0.389105,-0.583658c-0.179745,-0.074452 -0.389105,-0.194552 -0.389105,-0.389105c0,-0.194553 -0.251537,-0.056983 -0.389107,-0.194553c-0.137569,-0.137569 0,-0.194552 -0.194551,-0.194552c-0.194553,0 -0.194553,-0.194552 -0.194553,-0.194552c0,-0.194552 0,-0.389105 -0.194551,-0.389105c-0.194553,0 -0.194553,-0.194552 -0.389105,-0.194552c-0.194553,0 -0.251535,0.137569 -0.389105,0c-0.137569,-0.137569 -0.134911,-0.283814 -0.389107,-0.389105c-0.179743,-0.074451 -0.194551,-0.194553 -0.389105,-0.194553c-0.194551,0 -0.389105,0 -0.583656,0c-0.194553,0 -0.389105,0 -0.583658,0c-0.194552,0 -0.194552,0 -0.389105,0c-0.194552,0 -0.251535,0.251536 -0.389105,0.389105c-0.13757,0.13757 -0.194553,0.194553 -0.194553,0.194553c-0.194552,0 -0.251535,0.056983 -0.389105,0.194552c-0.137569,0.137569 0,0.389105 -0.194552,0.389105c-0.194552,0 -0.194552,0.194552 -0.194552,0.194552c-0.194552,0 -0.389105,0 -0.583657,0c-0.194552,0 -0.251535,-0.13757 -0.389106,0c-0.137569,0.137569 -0.056983,0.251535 -0.194552,0.389105c-0.137569,0.137569 -0.389105,0.194552 -0.389105,0.194552c-0.194552,0.194552 -0.389105,0.194552 -0.389105,0.194552c-0.194552,0 -0.314652,0.01481 -0.389105,0.194552c-0.105291,0.254195 -0.329463,0.478367 -0.583658,0.583658c-0.179743,0.074452 -0.1201,0.01481 -0.194552,0.194552c-0.105291,0.254195 -0.251535,0.251535 -0.389105,0.389105c-0.137569,0.137569 -0.389105,0.194552 -0.389105,0.194552c0,0 -0.194552,0 0,0c0,0 0.389105,0 0.77821,0c0,0 0.269819,-0.178523 0.778211,-0.389105c0.179743,-0.074452 0.446088,0.137569 0.583657,0c0.137569,-0.137569 0,-0.389105 0.194552,-0.389105c0.194552,0 0.389105,-0.194552 0.778211,-0.389105c0,0 0.056983,-0.251535 0.194552,-0.389105c0.137569,-0.137569 0.251535,-0.056983 0.389105,-0.194552c0.137569,-0.137569 0.209362,0.074452 0.389105,0c0.254195,-0.105291 0.446088,-0.056983 0.583657,-0.194552c0.137569,-0.13757 0.01481,-0.1201 0.194553,-0.194553c0.254195,-0.105291 0.389105,-0.194552 0.583657,-0.194552c0.194552,0 0.194552,0 0.389106,0c0.194551,0 0.251535,-0.056983 0.389105,-0.194552c0.137569,-0.137569 0.389105,0 0.583656,0.194552c0,0 0.194553,0 0.194553,0.194552c0,0 0.036188,0.134738 0.389105,0.389105c0.223206,0.160877 0.389105,0.194552 0.389105,0.194552c0,0.194552 0.134911,0.283814 0.389105,0.389105c0.179745,0.074452 0.056984,0.251536 0.194553,0.389105c0.137569,0.137568 0.194551,0 0.194551,0c0,0.194552 0.120102,0.209362 0.194553,0.389105c0.105291,0.254195 0.194551,0.389105 0.389105,0.389105c0,0 0.194553,0.194552 0.194553,0.194552c0,0.194552 -0.059643,0.478367 0.194551,0.583658c0.179745,0.074452 0.134911,0.089262 0.389105,0.194552c0.179745,0.074452 0.194553,0.194552 0.194553,0.389105c0,0.194552 -0.074451,0.209362 0,0.389105c0.105291,0.254194 0.194551,0.389105 0.389105,0.583657c0,0 -0.137569,0.251535 0,0.389105c0.137569,0.137568 0.194551,0.194553 0.194551,0c0,-0.194552 0,-0.389105 0,-0.389105c0.194553,0 0.194553,-0.194552 0.194553,-0.389105c0,-0.194552 0,-0.389105 0,-0.389105c0,0.194552 0,0.389105 0,0.77821c0,0 0,0.194552 0,0.389105c0,0.194553 0,0.389106 0,0.389106c0,0 -0.056984,0.056982 -0.194553,0.194552c-0.137569,0.137569 -0.20936,0.1201 -0.389105,0.194552c-0.254194,0.105291 -0.194551,0.194552 -0.194551,0c0,-0.194552 0.20936,-0.314652 0.389105,-0.389105c0.254194,-0.105291 0.283813,-0.524015 0.389105,-0.778211c0.074451,-0.179743 0,-0.389105 0,-0.77821c0,-0.194552 0,-0.389105 0,-0.583658c0,-0.194552 0.194551,-0.389105 0,-0.389105c-0.194551,0 -0.074451,0.403914 0,0.583657c0.105291,0.254196 0.194553,0.389105 0.194553,0.389105c0,0.389105 0,0.583657 0,0.77821c0,0 0.074453,0.403914 0,0.583658c-0.105291,0.254195 -0.194553,0.194552 -0.194553,0.194552c-0.194553,0.194552 -0.403913,0.314652 -0.583658,0.389105c-0.254194,0.105291 -0.418724,0.2402 -0.77821,0.389105c-0.254194,0.105291 -0.160261,0.483707 -0.583658,0.583657c-0.189346,0.044699 -0.251535,0.056983 -0.389105,0.194553c-0.137569,0.137569 -0.308517,0.113966 -0.583656,0.389105c-0.275139,0.275139 -0.194553,0.389105 -0.194553,0.389105c-0.389105,0.389105 -0.446089,0.64064 -0.583658,0.77821c-0.137569,0.137568 -0.194551,0 -0.389105,0.194553c-0.194551,0.194552 -0.251535,0.251534 -0.389105,0.389105c-0.137569,0.137569 0.036188,0.059815 0.389105,-0.194552c0.223206,-0.160876 0.333488,-0.430286 0.778212,-0.972763c0.174435,-0.212776 0.470018,-0.537174 0.77821,-1.167315c0.270302,-0.55267 0.478365,-1.107673 0.583656,-1.361867c0.148905,-0.359488 0.251537,-0.64064 0.389107,-0.778211c0.137569,-0.137569 -0.074451,-0.403914 0,-0.583657c0.105291,-0.254194 0.494396,-0.134909 0.389105,-0.389105c-0.074451,-0.179744 -0.344406,0.005205 -0.389105,0.194552c-0.099951,0.423395 -0.573647,1.41998 -0.778212,1.750973c-0.22871,0.370061 -0.64064,0.446087 -0.77821,0.583657c-0.275139,0.275139 -0.523842,0.814399 -0.77821,1.167315c-0.321753,0.446408 -0.583658,0.389105 -0.77821,0.77821c0,0 -0.056984,0.332123 -0.194553,0.194552c-0.275139,-0.275139 0.074923,-0.656034 0.583658,-1.361867c0.321753,-0.446409 0.417177,-1.154503 0.583656,-1.55642c0.235437,-0.568398 0.483709,-1.133026 0.583658,-1.55642c0.044699,-0.189348 0,-0.583658 0,-0.77821c0,0 0.137569,-0.332122 0,-0.194552c-0.137569,0.137569 -0.314594,0.339897 -0.583658,1.167315c-0.365965,1.125409 -0.290556,1.921898 -0.389105,2.529182c-0.062328,0.384082 -0.094603,0.938474 -0.194551,1.361868c-0.089397,0.378696 -0.194553,0.583657 -0.389105,0.583657c0,0 -0.251535,0.137568 -0.389105,0c-0.275139,-0.275139 -0.023771,-0.585114 0,-0.77821c0.098009,-0.79615 0.294022,-1.756804 0.389105,-2.529182c0.098009,-0.796151 0.299707,-1.372277 0.389105,-1.750973c0.099949,-0.423395 0.194551,-0.583657 0.194551,-0.77821c0,-0.194552 0,-0.389105 -0.194551,-0.389105c0,0 -0.283813,0.059642 -0.389105,-0.194552c-0.074451,-0.179744 0,-0.194553 0,-0.389105c0,-0.194552 -0.194553,-0.194552 -0.389105,-0.194552c-0.194553,0 -0.194553,0.194552 -0.194553,0.389105c0,0.972763 0,1.361868 0,1.750973c0,0.194552 -0.094603,0.743919 -0.194552,1.167315c-0.134097,0.568045 -0.194552,0.583658 -0.194552,0.972763c0,0.194552 0,0.389105 0,0.389105c0,-0.194552 -0.194552,-1.167315 -0.194552,-1.361868c0,-0.972762 0,-1.750972 0,-2.33463c0,-0.389105 -0.056983,-0.835193 -0.194552,-0.972763c-0.13757,-0.13757 -0.389106,0 -0.583658,0.389105c-0.194552,0.389105 -0.389105,1.167315 -0.389105,2.33463c0,0.583657 0,1.55642 0,1.945525c0,0.194552 0.137569,0.446088 0,0.583657c-0.137569,0.137569 -0.389105,0 -0.389105,-0.389105c0,-0.194552 0,-0.972762 0,-1.750973c0,-0.77821 0,-1.55642 0,-1.55642c0,-0.194552 0,-0.389105 0,-0.583658c0,-0.194552 0,0 0,0.583658c0,0.77821 -0.153666,1.571681 -0.389105,2.140078c-0.16648,0.401917 -0.483708,0.938472 -0.583658,1.361867c-0.044699,0.189348 -0.251535,0.251536 -0.389105,0.389106c-0.137569,0.137569 -0.194552,0.194552 -0.194552,0c0,-0.583658 -0.134097,-1.182929 0,-1.750973c0.09995,-0.423396 0.389105,-0.583658 0.583657,-0.778211c0.194552,-0.194552 0.383901,-0.538958 0.194552,-0.583657c-0.423395,-0.09995 -0.583657,1.167315 -0.972762,1.55642c-0.972762,0.972763 -1.628797,1.436789 -2.334631,1.945525c-0.446408,0.321753 -0.972762,0.389105 -1.750973,0.389105c-0.389105,0 -0.972762,-0.194552 -0.972762,0c0,0.194552 0.238981,0.223356 0.77821,0c0.50839,-0.210582 0.944111,-0.617333 1.167315,-0.77821c0.352917,-0.254369 0.619845,-0.718395 0.972763,-0.972763c0.446408,-0.321753 0.77821,-0.583657 0.972762,-0.77821c0.194552,-0.194553 0.403914,-0.509207 0.583657,-0.583658c0.254196,-0.105291 0.194553,-0.389105 0,-0.389105c-0.194552,0 -0.755159,0.426124 -1.361867,0.77821c-0.752529,0.436709 -1.304564,0.456458 -1.750973,0.778211c-0.352918,0.254368 -0.549368,0.483707 -0.972763,0.583657c-0.189348,0.044699 -0.314653,0.374295 -0.389105,0.194552c-0.105291,-0.254195 0.64397,-0.06566 1.167315,-0.389105c0.702141,-0.433947 1.033219,-0.882281 1.361867,-1.167315c0.464778,-0.4031 0.749559,-0.617333 0.972763,-0.77821c0.352917,-0.254368 0.583657,-0.194552 0.389105,-0.194552c-0.194552,0 -0.545846,0.087239 -1.361868,0.389105c-0.752334,0.278306 -1.518609,0.476344 -2.33463,0.778211c-0.752334,0.278307 -0.77821,0.194552 -0.972763,0.194552c-0.389105,0 -0.573249,0.089398 -0.194552,0c0.423395,-0.09995 1.795401,-0.554854 2.33463,-0.778211c0.50839,-0.210582 0.793019,-0.703757 0.972762,-0.77821c0.254195,-0.105291 0.478367,-0.13491 0.583658,-0.389105c0.074452,-0.179743 0.494396,-0.13491 0.389105,-0.389105c-0.074452,-0.179743 -0.483707,0.160262 -0.583658,0.583658c-0.044699,0.189348 0.194553,0.194552 0.583658,0.194552c0.77821,0 1.327578,-0.094603 1.750973,-0.194552c0.189348,-0.044699 0.583657,-0.389105 0.583657,-0.583658c0,0 0.194552,0 0.389105,0c0.194552,0 0.194552,-0.194552 0.389106,-0.194552c0.194552,0 0.194552,0.194552 0,0.194552c0,0 0,0.389105 -0.389106,0.77821c-0.389105,0.389105 -0.583657,0.77821 -0.583657,1.361868c0,0.194552 0.194552,0.389105 0.77821,0.389105c0.583658,0 0.987573,0.074452 1.167315,0c0.254195,-0.105291 0.446088,-0.332122 0.583657,-0.194552c0.275139,0.275139 0,0.77821 0,1.167315c0,0.194552 0,0.389106 0,0.389106c0,0 0,-0.389106 0.194553,-0.778211c0.194552,-0.389105 0.194552,-0.77821 0.194552,-1.167315c0,-0.194552 0,0 0,0.389106c0,0.77821 0.006118,1.63659 -0.389106,2.33463c-0.542243,0.957703 -1.522129,1.45647 -1.945525,1.55642c-0.378695,0.089397 -0.389105,0 -0.583657,0c-0.194552,0 -0.485646,-0.565717 -0.583657,-1.361868c-0.095084,-0.772379 0.389105,-1.167315 0.389105,-1.361868c0,-0.194552 0.194552,0 0.194552,0.194552c0,0.194553 -0.146948,0.998445 -0.583657,1.750973c-0.352087,0.606709 -0.389106,0.778211 -0.194552,0.583658c0.194552,-0.194552 0.932672,-0.795222 1.361867,-1.750973c0.356428,-0.793709 0.583658,-1.55642 0.972763,-1.945525c0.194552,-0.194552 0.389105,-0.583658 0.194552,-0.583658c-0.194552,0 0,0.583658 0,1.361868c0,0.583657 -0.032094,0.776885 0,0.389105c0.097609,-1.179384 0.291496,-1.544351 0.389105,-2.723735c0.064187,-0.775558 0.047543,-1.1644 0,-0.77821c-0.098011,0.796151 -0.389105,1.55642 -0.389105,1.945525c0,0.389106 -0.194552,0.389106 -0.194552,0.583658c0,0.194552 -0.178796,-0.21537 0,-0.972763c0.09995,-0.423395 0.194552,-0.77821 0.194552,-0.77821c0,-0.389105 0.105291,-0.643301 0,-0.389105c-0.148904,0.359487 -0.074921,1.045139 -0.583657,1.750973c-0.160876,0.223205 0.058112,0.399117 0.389105,0.194552c0.370061,-0.228711 0.899116,-1.067472 1.361868,-1.750973c0.830667,-1.226921 1.067365,-1.716683 1.167315,-2.140078c0.044699,-0.189348 0.194551,-0.389105 0.194551,-0.194552c0,0.194552 -0.094603,0.160263 -0.194551,0.583657c-0.044699,0.189348 -0.209362,0.314654 -0.389105,0.389105c-0.50839,0.210582 -0.524015,0.672919 -0.778211,0.77821c-0.179743,0.074452 -0.389106,0 -0.389106,0l-0.194552,0l-0.194552,0l0,0.194552" id="svg_20" fill-opacity="null" stroke-opacity="null" stroke-width="1.5" stroke="#e33e54" fill="none"/>
  <path d="m18.601164,6.957196c0,-0.194553 0,-0.583658 0,-0.583658c0.194553,-0.194552 0.120102,-0.403914 0.194553,-0.583658c0.105291,-0.254194 0.194551,-0.194552 0.194551,-0.389105c0,-0.194553 0.089262,-0.13491 0.194553,-0.389105c0.074451,-0.179743 0,-0.194552 -0.194553,-0.194552c0,0 -0.194551,0 -0.389105,0c-0.389105,0 -0.389105,0.194553 -0.77821,0.583658c-0.194553,0.194553 -0.056984,0.446088 -0.194553,0.583657c-0.137569,0.137568 -0.194551,0 -0.194551,0.389105c0,0 0,0.194552 0,0.194552c0.194551,0 0.788618,0.089398 1.167315,0c0.423395,-0.09995 0.672918,-0.329463 0.77821,-0.583658c0.148903,-0.359486 0.137569,-0.64064 0,-0.77821c-0.137569,-0.137568 -0.134909,-0.283814 -0.389105,-0.389105c-0.179743,-0.074451 -0.389105,0 -0.583656,0c-0.194553,0 -0.194553,0 -0.389105,0c-0.194553,0 -0.478367,-0.059642 -0.583658,0.194552c-0.148903,0.359487 0,0.583658 0,0.77821c0,0.194552 0.194551,0.194552 0.583658,0.194552l0.194551,0.194553l0.194553,0l0.194551,0" id="svg_21" fill-opacity="null" stroke-opacity="null" stroke-width="1.5" stroke="#e33e54" fill="none"/>
  <path d="m12.764588,17.26848c0,0 0.033676,-0.165901 0.194552,-0.389107c0.254368,-0.352917 0.583658,-0.972762 0.583658,-1.167315c0,-0.194552 0.179743,-0.269004 0,-0.194552c-0.254196,0.105291 -0.32929,0.230741 -0.583658,0.583657c-0.160876,0.223206 -0.194552,0.389105 -0.389105,0.389105c-0.194552,0 -0.446088,0.056984 -0.583657,0.194553c-0.137568,0.137569 0,0.194551 0,0.389105c0,0.194553 0.01481,0.074451 0.194552,0c0.254195,-0.105291 0.478366,-0.329462 0.583657,-0.583658c0.074451,-0.179743 0.194552,-0.389105 0.194552,-0.583657l0.194552,0l0.194552,0" id="svg_22" fill-opacity="null" stroke-opacity="null" stroke-width="1.5" stroke="#e33e54" fill="none"/>
  <path d="m5.95525,13.377429c0,0 -0.194552,0 -0.194552,-0.194552c0,-0.194552 -0.251535,-0.056983 -0.389105,-0.194552c-0.137569,-0.137569 -0.251535,-0.056983 -0.389105,-0.194552c-0.13757,-0.13757 0,-0.194553 -0.194552,-0.194553c-0.194552,0 -0.251535,-0.056983 -0.389105,-0.194552c-0.13757,-0.137569 -0.059643,0.089261 0.194552,0.194552c0.179743,0.074452 0.389105,0 0.389105,0c0.389105,0.194553 0.583658,0.389106 0.77821,0.583658c0.194552,0.194552 0.389105,0.194552 0.583658,0.194552c0.194552,0 0.194552,0 0.194552,0.194552c0,0 0.389105,0.583657 0.77821,0.583657c0,0 0,0 0,0c-0.194552,0 -0.583657,-0.194552 -0.77821,-0.389105c-0.194552,-0.194552 -0.251535,-0.446088 -0.389105,-0.583657c-0.13757,-0.137569 -0.389105,-0.194552 -0.389105,-0.194552c0,-0.194552 -0.194552,-0.194552 -0.389105,-0.389106c0,0 -0.194552,-0.194552 -0.389105,-0.389105l0,-0.194552" id="svg_23" fill-opacity="null" stroke-opacity="null" stroke-width="1.5" stroke="#e33e54" fill="none"/>
 </g>
</symbol><symbol id="heart" viewBox="0 0 23 23"><g fill="none">
<path d="M11.5 21.7204C11.1725 21.7204 10.8569 21.6018 10.6108 21.3863C9.6817 20.5739 8.78589 19.8104 7.99555 19.1369L7.99152 19.1334C5.67436 17.1588 3.67341 15.4535 2.28118 13.7736C0.72489 11.8957 0 10.1151 0 8.16999C0 6.28011 0.648032 4.53658 1.8246 3.26035C3.0152 1.96902 4.64888 1.25781 6.42522 1.25781C7.75287 1.25781 8.96874 1.67755 10.039 2.50527C10.5791 2.92308 11.0687 3.43442 11.5 4.03086C11.9315 3.43442 12.4209 2.92308 12.9612 2.50527C14.0314 1.67755 15.2473 1.25781 16.5749 1.25781C18.3511 1.25781 19.9849 1.96902 21.1755 3.26035C22.3521 4.53658 23 6.28011 23 8.16999C23 10.1151 22.2752 11.8957 20.7189 13.7735C19.3267 15.4535 17.3259 17.1586 15.0091 19.133C14.2174 19.8076 13.3202 20.5723 12.3889 21.3867C12.1431 21.6018 11.8272 21.7204 11.5 21.7204ZM6.42522 2.60512C5.02966 2.60512 3.74764 3.16208 2.81498 4.17352C1.86847 5.20023 1.34713 6.61948 1.34713 8.16999C1.34713 9.80595 1.95515 11.2691 3.31842 12.914C4.63607 14.504 6.59596 16.1742 8.86521 18.1081L8.86942 18.1116C9.66275 18.7877 10.5621 19.5542 11.498 20.3726C12.4397 19.5526 13.3404 18.7849 14.1353 18.1077C16.4044 16.1738 18.3641 14.504 19.6817 12.914C21.0448 11.2691 21.6528 9.80595 21.6528 8.16999C21.6528 6.61948 21.1315 5.20023 20.185 4.17352C19.2525 3.16208 17.9703 2.60512 16.5749 2.60512C15.5526 2.60512 14.614 2.9301 13.7852 3.57094C13.0466 4.14229 12.5321 4.86455 12.2305 5.36992C12.0754 5.6298 11.8023 5.78492 11.5 5.78492C11.1976 5.78492 10.9246 5.6298 10.7695 5.36992C10.468 4.86455 9.95351 4.14229 9.21476 3.57094C8.38599 2.9301 7.44737 2.60512 6.42522 2.60512Z" fill="#E33E54"/>
</g></symbol><symbol id="instagram" viewBox="0 0 15 16"><g fill="none">
<g clip-path="url(#clip0_2711_43)">
<path d="M10.9396 0H4.06036C1.82144 0 0 1.94287 0 4.33105V11.669C0 14.0571 1.82144 16 4.06036 16H10.9397C13.1785 16 15 14.0571 15 11.669V4.33105C15 1.94287 13.1785 0 10.9396 0V0ZM7.49999 12.3749C5.23841 12.3749 3.39855 10.4123 3.39855 7.99998C3.39855 5.58764 5.23841 3.62512 7.49999 3.62512C9.76156 3.62512 11.6014 5.58764 11.6014 7.99998C11.6014 10.4123 9.76156 12.3749 7.49999 12.3749ZM11.6995 4.65685C11.0312 4.65685 10.4876 4.07702 10.4876 3.36413C10.4876 2.65124 11.0312 2.07129 11.6995 2.07129C12.3678 2.07129 12.9115 2.65124 12.9115 3.36413C12.9115 4.07702 12.3678 4.65685 11.6995 4.65685Z" fill="#4C858B"/>
<path d="M7.49997 4.56299C5.72339 4.56299 4.27789 6.10473 4.27789 7.99987C4.27789 9.89489 5.72339 11.4368 7.49997 11.4368C9.27666 11.4368 10.722 9.89489 10.722 7.99987C10.722 6.10473 9.27666 4.56299 7.49997 4.56299Z" fill="#4C858B"/>
<path d="M11.6995 3.00928C11.5162 3.00928 11.3669 3.16846 11.3669 3.36401C11.3669 3.55957 11.5162 3.71875 11.6995 3.71875C11.883 3.71875 12.0322 3.55969 12.0322 3.36401C12.0322 3.16833 11.883 3.00928 11.6995 3.00928Z" fill="#4C858B"/>
</g>

</g></symbol><symbol id="instagram1" viewBox="0 0 18 19"><g fill="none">
<g clip-path="url(#clip0_1_376)">
<path d="M13.1275 0H4.87243C2.18573 0 0 2.30716 0 5.14312V13.857C0 16.6928 2.18573 19 4.87243 19H13.1277C15.8142 19 18 16.6928 18 13.857V5.14312C18 2.30716 15.8142 0 13.1275 0V0ZM8.99998 14.6951C6.28609 14.6951 4.07825 12.3646 4.07825 9.49998C4.07825 6.63532 6.28609 4.30482 8.99998 4.30482C11.7139 4.30482 13.9217 6.63532 13.9217 9.49998C13.9217 12.3646 11.7139 14.6951 8.99998 14.6951ZM14.0394 5.53001C13.2374 5.53001 12.5851 4.84146 12.5851 3.9949C12.5851 3.14835 13.2374 2.45965 14.0394 2.45965C14.8414 2.45965 15.4939 3.14835 15.4939 3.9949C15.4939 4.84146 14.8414 5.53001 14.0394 5.53001Z" fill="#EA6628"/>
<path d="M8.99999 5.41864C6.8681 5.41864 5.1335 7.24946 5.1335 9.49994C5.1335 11.7503 6.8681 13.5812 8.99999 13.5812C11.132 13.5812 12.8665 11.7503 12.8665 9.49994C12.8665 7.24946 11.132 5.41864 8.99999 5.41864Z" fill="#EA6628"/>
<path d="M14.0394 3.57363C13.8194 3.57363 13.6403 3.76266 13.6403 3.99488C13.6403 4.2271 13.8194 4.41613 14.0394 4.41613C14.2596 4.41613 14.4386 4.22725 14.4386 3.99488C14.4386 3.76251 14.2596 3.57363 14.0394 3.57363Z" fill="#EA6628"/>
</g>

</g></symbol><symbol id="loupe" viewBox="0 0 22 22"><g fill="none">
<path d="M21.7312 20.4351L15.475 14.1789C16.6868 12.682 17.4165 10.7799 17.4165 8.70826C17.4165 3.90681 13.5097 0 8.70822 0C3.90677 0 0 3.90677 0 8.70822C0 13.5097 3.90681 17.4165 8.70826 17.4165C10.7799 17.4165 12.682 16.6868 14.1789 15.475L20.4351 21.7312C20.6138 21.9099 20.8484 21.9998 21.0831 21.9998C21.3178 21.9998 21.5525 21.9099 21.7312 21.7312C22.0896 21.3728 22.0896 20.7934 21.7312 20.4351ZM8.70826 15.5832C4.91695 15.5832 1.83333 12.4995 1.83333 8.70822C1.83333 4.91691 4.91695 1.83329 8.70826 1.83329C12.4996 1.83329 15.5832 4.91691 15.5832 8.70822C15.5832 12.4995 12.4995 15.5832 8.70826 15.5832Z" fill="#4C858B"/>
</g></symbol><symbol id="review" viewBox="0 0 77 77"><g fill="none">
<g clip-path="url(#clip0_1_236)">
<path d="M8.19933 6.82037C7.36902 6.82037 6.69557 7.49367 6.69557 8.32413C6.69557 9.15459 7.36887 9.82789 8.19933 9.82789H8.21437C9.04467 9.82789 9.7106 9.15459 9.7106 8.32413C9.7106 7.49367 9.02978 6.82037 8.19933 6.82037Z" fill="#4C858B"/>
<path d="M15.4101 6.82037C14.5797 6.82037 13.9063 7.49367 13.9063 8.32413C13.9063 9.15459 14.5796 9.82789 15.4101 9.82789H15.4249C16.2552 9.82789 16.9213 9.15459 16.9213 8.32413C16.9213 7.49367 16.2405 6.82037 15.4101 6.82037Z" fill="#4C858B"/>
<path d="M22.62 6.82037C21.7897 6.82037 21.1162 7.49367 21.1162 8.32413C21.1162 9.15459 21.7895 9.82789 22.62 9.82789H22.6349C23.4652 9.82789 24.1311 9.15459 24.1311 8.32413C24.1311 7.49367 23.4504 6.82037 22.62 6.82037Z" fill="#4C858B"/>
<path d="M59.5048 6.82037H41.2562C40.4259 6.82037 39.7525 7.49367 39.7525 8.32413C39.7525 9.15459 40.4258 9.82789 41.2562 9.82789H59.5048C60.3351 9.82789 61.0085 9.15459 61.0085 8.32413C61.0085 7.49367 60.3351 6.82037 59.5048 6.82037Z" fill="#4C858B"/>
<path d="M35.1777 59.6919C34.8978 59.4121 34.5099 59.2512 34.1146 59.2512C33.7192 59.2512 33.3312 59.4121 33.0516 59.6919C32.7719 59.9716 32.6108 60.3596 32.6108 60.755C32.6108 61.1504 32.7717 61.5384 33.0516 61.8179C33.3312 62.0977 33.719 62.2587 34.1146 62.2587C34.5101 62.2587 34.898 62.0978 35.1777 61.8179C35.4574 61.5384 35.6183 61.1505 35.6183 60.755C35.6183 60.3594 35.4574 59.9716 35.1777 59.6919Z" fill="#4C858B"/>
<path d="M68.8798 19.2912V7.52314C68.8798 3.37733 65.507 0.0045166 61.3612 0.0045166H7.51863C3.37281 0.0045166 0 3.37748 0 7.52329V55.0367C0 59.0191 3.23987 62.259 7.22221 62.259H12.8658V62.5031C12.8658 63.0176 12.4996 63.4638 11.9952 63.5643L6.32814 64.6934C3.17881 65.3211 0.828953 67.8875 0.480949 71.0799L0.0175957 75.329C-0.0287246 75.7537 0.10798 76.178 0.393121 76.496C0.678262 76.8141 1.08537 76.9958 1.51248 76.9958H34.1146C34.5419 76.9958 34.949 76.814 35.2341 76.4959C35.5193 76.1778 35.6558 75.7534 35.6093 75.3287L35.1448 71.0782C34.796 67.8866 32.4463 65.321 29.2979 64.6935L23.6298 63.5643C23.1253 63.4638 22.7592 63.0174 22.7592 62.5031V61.0911C22.7592 61.0834 22.7582 61.076 22.758 61.0684L25.3067 59.6114C25.3348 59.5954 25.3622 59.5784 25.3891 59.5607C26.7557 58.6582 27.6531 57.0511 27.7898 55.2616C27.7928 55.2234 27.7941 55.1852 27.7941 55.147V48.9801C28.6927 48.3948 29.3487 47.3306 29.3487 45.4679L29.3511 42.0889C29.3511 42.033 29.3481 41.9778 29.3421 41.9233C29.1881 38.9476 26.7652 36.6361 23.7682 36.6361H10.9895C10.4285 36.6361 9.90788 36.3389 9.56981 36.0897C8.93651 35.6229 8.10831 35.5528 7.40764 35.9068C6.70968 36.2595 6.2761 36.9647 6.2761 37.7474V42.6403C6.2761 44.3022 6.86037 45.8297 7.8331 47.0306V55.147C7.8331 55.1852 7.8346 55.2234 7.83746 55.2616C7.95942 56.858 8.69754 58.3119 9.83855 59.2514H7.22221C4.89822 59.2516 3.00736 57.3609 3.00736 55.0367V23.4733H19.8006C20.6309 23.4733 21.3043 22.8 21.3043 21.9695C21.3043 21.1391 20.631 20.4658 19.8006 20.4658H3.00751V16.2553H65.8724V19.2497H41.4619C36.5147 19.2497 32.4896 23.2746 32.4896 28.2219V40.8082C32.4896 45.7554 36.5147 49.7804 41.4619 49.7804H43.3417V54.177C43.3417 54.7854 43.7082 55.3335 44.2699 55.5663C44.4559 55.6433 44.6514 55.6808 44.8451 55.6808C45.2366 55.6808 45.621 55.528 45.9087 55.2403L51.3686 49.7802H65.8726V55.0365C65.8726 57.3606 63.9817 59.2515 61.6576 59.2515H40.2339C39.4035 59.2515 38.7301 59.9248 38.7301 60.7553C38.7301 61.5857 39.4034 62.259 40.2339 62.259H61.6574C65.6399 62.259 68.8798 59.019 68.8798 55.0367V49.739C73.4288 49.3081 77 45.4682 77 40.8083V28.222C77 23.5622 73.4288 19.7221 68.8798 19.2912ZM23.7319 66.6513L28.7105 67.6432C30.5658 68.0127 31.95 69.5244 32.1556 71.4047L32.4379 73.9881H3.18933L3.47102 71.4058C3.676 69.5247 5.06049 68.0127 6.91601 67.643L11.895 66.651C13.5278 68.1056 15.6092 68.9019 17.8136 68.9019C20.018 68.9019 22.0993 68.1054 23.7319 66.6513ZM14.91 65.1318C15.4582 64.48 15.8023 63.6593 15.8612 62.7729C16.4831 63.0777 17.1481 63.2326 17.8136 63.2326C18.4783 63.2328 19.1425 63.0782 19.764 62.7739C19.8231 63.6604 20.1677 64.4809 20.7159 65.1327C19.8401 65.6288 18.8476 65.8943 17.8136 65.8943C16.7794 65.8943 15.7864 65.6284 14.91 65.1318ZM24.7869 55.0845C24.7111 55.904 24.324 56.641 23.7661 57.0283L18.7142 59.9162C18.686 59.9322 18.6587 59.9492 18.6317 59.9669C18.1117 60.3102 17.5154 60.3101 16.9956 59.9669C16.9693 59.9496 16.9424 59.9329 16.915 59.9173L11.8772 57.0286C11.3094 56.6356 10.9163 55.8982 10.8405 55.0843V49.1943C11.5956 49.4745 12.4119 49.628 13.2633 49.628H24.7869V55.0845ZM9.28361 42.6406V39.3291C9.84562 39.5368 10.4201 39.6437 10.9898 39.6437H23.7685C25.1715 39.6437 26.3018 40.742 26.3415 42.1443C26.342 42.161 26.3429 42.1778 26.3439 42.1945L26.3415 45.467C26.3415 45.4673 26.3415 45.4678 26.3415 45.4681C26.3415 46.2293 26.186 46.4217 26.1683 46.4412C26.1075 46.5077 25.8442 46.6203 25.2429 46.6203H13.2634C11.0688 46.6203 9.28361 44.8352 9.28361 42.6406ZM3.00751 13.2479V7.52329C3.00751 5.03583 5.03117 3.01218 7.51863 3.01218H61.3612C63.8486 3.01218 65.8723 5.03583 65.8723 7.52329V13.2481H3.00751V13.2479ZM73.9925 40.8083C73.9925 44.0972 71.3166 46.773 68.0277 46.773H50.7454C50.3466 46.773 49.9643 46.9315 49.6821 47.2135L46.349 50.5467V48.2767C46.349 47.4464 45.6757 46.773 44.8453 46.773H41.4619C38.1731 46.773 35.4972 44.0972 35.4972 40.8083V28.222C35.4972 24.9331 38.1731 22.2574 41.4619 22.2574H68.0277C71.3166 22.2574 73.9925 24.9331 73.9925 28.222V40.8083Z" fill="#4C858B"/>
<path d="M42.7148 29.9465C40.2273 29.9465 38.2035 31.9702 38.2035 34.4577C38.2035 36.9451 40.2272 38.9688 42.7148 38.9688C45.2023 38.9688 47.2259 36.9451 47.2259 34.4577C47.2259 31.9702 45.2023 29.9465 42.7148 29.9465ZM42.7148 35.9614C41.8857 35.9614 41.211 35.2869 41.211 34.4577C41.211 33.6285 41.8855 32.9539 42.7148 32.9539C43.5441 32.9539 44.2186 33.6284 44.2186 34.4577C44.2186 35.2869 43.5437 35.9614 42.7148 35.9614Z" fill="#4C858B"/>
<path d="M54.7442 29.9465C52.2568 29.9465 50.2331 31.9702 50.2331 34.4577C50.2331 36.9451 52.2568 38.9688 54.7442 38.9688C57.2317 38.9688 59.2553 36.9451 59.2553 34.4577C59.2553 31.9702 57.2317 29.9465 54.7442 29.9465ZM54.7442 35.9614C53.9151 35.9614 53.2405 35.2869 53.2405 34.4577C53.2405 33.6285 53.915 32.9539 54.7442 32.9539C55.5735 32.9539 56.248 33.6284 56.248 34.4577C56.248 35.2869 55.5733 35.9614 54.7442 35.9614Z" fill="#4C858B"/>
<path d="M66.7745 29.9465C64.2871 29.9465 62.2634 31.9702 62.2634 34.4577C62.2634 36.9451 64.2871 38.9688 66.7745 38.9688C69.262 38.9688 71.2858 36.9451 71.2858 34.4577C71.2858 31.9702 69.262 29.9465 66.7745 29.9465ZM66.7745 35.9614C65.9454 35.9614 65.2708 35.2869 65.2708 34.4577C65.2708 33.6285 65.9453 32.9539 66.7745 32.9539C67.6037 32.9539 68.2783 33.6284 68.2783 34.4577C68.2783 35.2869 67.6035 35.9614 66.7745 35.9614Z" fill="#4C858B"/>
<path d="M26.5024 20.9062C26.2228 20.6265 25.8349 20.4655 25.4394 20.4655C25.0439 20.4655 24.6562 20.6264 24.3763 20.9062C24.0966 21.1858 23.9356 21.5723 23.9356 21.9692C23.9356 22.3649 24.0964 22.7527 24.3763 23.0323C24.656 23.312 25.0439 23.473 25.4394 23.473C25.8364 23.473 26.2228 23.3122 26.5024 23.0323C26.7836 22.7527 26.9432 22.3649 26.9432 21.9692C26.9432 21.5738 26.7836 21.1858 26.5024 20.9062Z" fill="#4C858B"/>
</g>

</g></symbol><symbol id="telegram" viewBox="0 0 19 20"><g fill="none">
<g clip-path="url(#clip0_2711_47)">
<path d="M7.45514 12.6508L7.14085 17.3041C7.59052 17.3041 7.78527 17.1008 8.01881 16.8566L10.127 14.7358L14.4954 18.1033C15.2966 18.5733 15.8611 18.3258 16.0772 17.3274L18.9446 3.1841L18.9454 3.18326C19.1995 1.9366 18.5171 1.4491 17.7365 1.75493L0.881935 8.54743C-0.268356 9.01743 -0.25094 9.69243 0.686394 9.99826L4.99544 11.4091L15.0045 4.8166C15.4755 4.48826 15.9038 4.66993 15.5515 4.99826L7.45514 12.6508Z" fill="#4C858B"/>
</g>

</g></symbol><symbol id="telegram1" viewBox="0 0 22 23"><g fill="none">
<g clip-path="url(#clip0_1_380)">
<path d="M8.6323 14.5485L8.26838 19.8998C8.78905 19.8998 9.01455 19.666 9.28496 19.3852L11.726 16.9462L16.7842 20.8188C17.7119 21.3593 18.3655 21.0747 18.6157 19.9266L21.9359 3.6618L21.9368 3.66084C22.231 2.22717 21.4409 1.66655 20.537 2.01825L1.02122 9.82963C-0.310701 10.3701 -0.290535 11.1464 0.794799 11.4981L5.78421 13.1205L17.3736 5.53917C17.919 5.16159 18.415 5.37051 18.007 5.74809L8.6323 14.5485Z" fill="#EA6628"/>
</g>

</g></symbol><symbol id="vk" viewBox="0 0 20 20"><g fill="none">
<g clip-path="url(#clip0_2711_49)">
<path d="M16.5958 10.8567C16.2725 10.4484 16.365 10.2667 16.5958 9.90175C16.6 9.89758 19.2692 6.20925 19.5442 4.95841L19.5458 4.95758C19.6825 4.50175 19.5458 4.16675 18.885 4.16675H16.6983C16.1417 4.16675 15.885 4.45425 15.7475 4.77591C15.7475 4.77591 14.6342 7.44092 13.0592 9.16842C12.5508 9.66758 12.3158 9.82758 12.0383 9.82758C11.9017 9.82758 11.6892 9.66758 11.6892 9.21175V4.95758C11.6892 4.41091 11.5333 4.16675 11.0725 4.16675H7.63417C7.285 4.16675 7.0775 4.42175 7.0775 4.65925C7.0775 5.17758 7.865 5.29675 7.94667 6.75508V9.91925C7.94667 10.6126 7.82083 10.7401 7.54167 10.7401C6.79833 10.7401 4.99417 8.06425 3.925 5.00175C3.70917 4.40758 3.49833 4.16758 2.9375 4.16758H0.75C0.125833 4.16758 0 4.45508 0 4.77675C0 5.34508 0.743333 8.17092 3.45667 11.9042C5.265 14.4526 7.81167 15.8334 10.1283 15.8334C11.5208 15.8334 11.6908 15.5268 11.6908 14.9993C11.6908 12.5643 11.565 12.3342 12.2625 12.3342C12.5858 12.3342 13.1425 12.4942 14.4425 13.7234C15.9283 15.1809 16.1725 15.8334 17.0042 15.8334H19.1908C19.8142 15.8334 20.13 15.5268 19.9483 14.9218C19.5325 13.6493 16.7225 11.0317 16.5958 10.8567V10.8567Z" fill="#4C858B"/>
</g>

</g></symbol><symbol id="vk1" viewBox="0 0 23 23"><g fill="none">
<g clip-path="url(#clip0_1_382)">
<path d="M19.0852 12.4852C18.7134 12.0156 18.8197 11.8067 19.0852 11.3869C19.09 11.3821 22.1595 7.14055 22.4758 5.70209L22.4777 5.70113C22.6349 5.17692 22.4777 4.79167 21.7177 4.79167H19.2031C18.5629 4.79167 18.2677 5.1223 18.1096 5.49221C18.1096 5.49221 16.8293 8.55696 15.018 10.5436C14.4335 11.1176 14.1632 11.3016 13.8441 11.3016C13.6869 11.3016 13.4425 11.1176 13.4425 10.5934V5.70113C13.4425 5.07246 13.2633 4.79167 12.7334 4.79167H8.77928C8.37774 4.79167 8.13912 5.08492 8.13912 5.35805C8.13912 5.95413 9.04474 6.09117 9.13866 7.76826V11.407C9.13866 12.2044 8.99395 12.351 8.67291 12.351C7.81808 12.351 5.74328 9.2738 4.51374 5.75192C4.26553 5.06863 4.02308 4.79263 3.37812 4.79263H0.862492C0.144701 4.79263 -7.62939e-06 5.12325 -7.62939e-06 5.49317C-7.62939e-06 6.14676 0.854825 9.39646 3.97516 13.6898C6.05474 16.6204 8.98341 18.2083 11.6476 18.2083C13.249 18.2083 13.4445 17.8557 13.4445 17.249C13.4445 14.4488 13.2997 14.1843 14.1019 14.1843C14.4737 14.1843 15.1139 14.3683 16.6089 15.7818C18.3176 17.458 18.5984 18.2083 19.5548 18.2083H22.0695C22.7863 18.2083 23.1495 17.8557 22.9406 17.1599C22.4624 15.6965 19.2309 12.6864 19.0852 12.4852Z" fill="#EA6628"/>
</g>

</g></symbol><symbol id="whatsapp" viewBox="0 0 15 16"><g fill="none">
<g clip-path="url(#clip0_2711_39)">
<path d="M7.50187 0H7.49813C3.36281 0 0 3.588 0 8C0 9.75 0.52875 11.372 1.42781 12.689L0.493125 15.661L3.37594 14.678C4.56187 15.516 5.97656 16 7.50187 16C11.6372 16 15 12.411 15 8C15 3.589 11.6372 0 7.50187 0ZM11.8659 11.297C11.685 11.842 10.9669 12.294 10.3941 12.426C10.0022 12.515 9.49031 12.586 7.76719 11.824C5.56312 10.85 4.14375 8.461 4.03312 8.306C3.92719 8.151 3.1425 7.041 3.1425 5.893C3.1425 4.745 3.68906 4.186 3.90938 3.946C4.09031 3.749 4.38937 3.659 4.67625 3.659C4.76906 3.659 4.8525 3.664 4.9275 3.668C5.14781 3.678 5.25844 3.692 5.40375 4.063C5.58469 4.528 6.02531 5.676 6.07781 5.794C6.13125 5.912 6.18469 6.072 6.10969 6.227C6.03938 6.387 5.9775 6.458 5.86687 6.594C5.75625 6.73 5.65125 6.834 5.54062 6.98C5.43937 7.107 5.325 7.243 5.4525 7.478C5.58 7.708 6.02063 8.475 6.66937 9.091C7.50656 9.886 8.18531 10.14 8.42812 10.248C8.60906 10.328 8.82469 10.309 8.95687 10.159C9.12469 9.966 9.33187 9.646 9.54281 9.331C9.69281 9.105 9.88219 9.077 10.0809 9.157C10.2834 9.232 11.355 9.797 11.5753 9.914C11.7956 10.032 11.9409 10.088 11.9944 10.187C12.0469 10.286 12.0469 10.751 11.8659 11.297Z" fill="#4C858B"/>
</g>

</g></symbol><symbol id="whatsapp1" viewBox="0 0 18 19"><g fill="none">
<g clip-path="url(#clip0_1_372)">
<path d="M9.00225 0H8.99775C4.03538 0 0 4.26075 0 9.5C0 11.5781 0.6345 13.5043 1.71337 15.0682L0.59175 18.5974L4.05113 17.4301C5.47425 18.4253 7.17188 19 9.00225 19C13.9646 19 18 14.7381 18 9.5C18 4.26194 13.9646 0 9.00225 0ZM14.2391 13.4152C14.022 14.0624 13.1602 14.5991 12.4729 14.7559C12.0026 14.8616 11.3884 14.9459 9.32063 14.041C6.67575 12.8844 4.9725 10.0474 4.83975 9.86337C4.71263 9.67931 3.771 8.36119 3.771 6.99794C3.771 5.63469 4.42688 4.97088 4.69125 4.68587C4.90838 4.45194 5.26725 4.34506 5.6115 4.34506C5.72288 4.34506 5.823 4.351 5.913 4.35575C6.17737 4.36762 6.31012 4.38425 6.4845 4.82481C6.70162 5.377 7.23037 6.74025 7.29338 6.88038C7.3575 7.0205 7.42163 7.2105 7.33162 7.39456C7.24725 7.58456 7.173 7.66887 7.04025 7.83037C6.9075 7.99187 6.7815 8.11537 6.64875 8.28875C6.52725 8.43956 6.39 8.60106 6.543 8.88013C6.696 9.15325 7.22475 10.0641 8.00325 10.7956C9.00787 11.7396 9.82237 12.0413 10.1137 12.1695C10.3309 12.2645 10.5896 12.2419 10.7483 12.0638C10.9496 11.8346 11.1982 11.4546 11.4514 11.0806C11.6314 10.8122 11.8586 10.7789 12.0971 10.8739C12.3401 10.963 13.626 11.6339 13.8904 11.7729C14.1547 11.913 14.3291 11.9795 14.3932 12.0971C14.4562 12.2146 14.4562 12.7668 14.2391 13.4152Z" fill="#EA6628"/>
</g>

</g></symbol></svg>